;TYPE=PLATED
;Layer: PTH_Through
;EasyEDA Pro v4.1.60, 2026-10-07 22:49:11
;Gerber Generator version 0.3
M48
METRIC,LZ,0000.00000
;Hole size 1 = 0.30000 METRIC
T01C0.30000
;Hole size 2 = 0.60000 METRIC
T02C0.60000
;Hole size 3 = 0.90002 METRIC
T03C0.90002
%
G05
G90
T01
X-3.048Y3.6
X-3.048Y2.4
X-2.921Y13.843
X-2.413Y12.319
X-4.445Y14.351
X-2.54Y15.367
X-4.445Y19.304
X-3.048Y20.828
X-2.921Y19.685
X-2.413Y18.288
X81.28Y18.923
X81.788Y17.272
X81.28Y14.732
X-4.953Y8.89
X-2.921Y8.763
X-2.413Y7.366
X-3.937Y7.874
X-2.032Y5.969
X-3.429Y5.588
X-8.001Y6.858
X-8.89Y5.969
X-8.89Y3.937
X-7.87545Y3.0
X-8.89Y2.032
X-3.048Y0.0
X-1.905Y1.016
X-2.413Y-1.524
X-8.89Y-1.016
X-4.445Y-2.54
X-2.921Y-3.175
X82.11774Y3.0
X82.677Y1.397
X81.788Y5.334
T02
X-6.23606Y21.18422G85X-6.83606Y21.18422
X-6.23606Y12.58383G85X-6.83606Y12.58383
T03
X-6.80198Y8.85G85X-8.40195Y8.85
X-6.80198Y-2.85G85X-8.40195Y-2.85
M30