G04 Layer: DrillDrawingLayer*
G04 EasyEDA Pro v4.1.60, 2026-10-07 22:49:11*
G04 Gerber Generator version 0.3*
G04 Scale: 100 percent, Rotated: No, Reflected: No*
G04 Dimensions in millimeters*
G04 Leading zeros omitted, absolute positions, 4 integers and 5 decimals*
G04 Generated by one-click*
G04 Object Configs: Pad,Via,Track,Text,Image,Dimension,BoardOutline,BoardCutout,CopperFilled,SolidRegion,FPCStiffener,Line,PlaneZone,ComponentProperty,ComponentSilkscreen,TearDrop*
G04 Layer Configs: 1,2,3,4,5,6,7,8,9,10,58,59,11,13,14,56*
G04 Copper Areas: 0*
%FSLAX45Y45*%
%MOMM*%
%AMIconRect*4,1,4,0.28,-0.28,-0.28,-0.28,-0.28,0.28,0.28,0.28,0.28,-0.28,0*4,0,4,0.233333,-0.233333,0.233333,0.233333,-0.233333,0.233333,-0.233333,-0.233333,0.233333,-0.233333,0*%
%AMIconTriangle*4,1,3,-0.339593,0.240473,0.339593,0.240473,0,-0.37884,-0.339593,0.240473,0*4,0,3,-0.265673,0.19404,0,-0.27342,0.266233,0.19404,-0.265673,0.19404,0*%
%AMIconStar6*4,1,12,0.12068,0.20888,0.298527,0.172713,0.241313,0,0.298527,-0.17206,0.12068,-0.208227,0,-0.344073,-0.120073,-0.208227,-0.298573,-0.17206,-0.240707,0,-0.298573,0.17206,-0.120073,0.20888,0,0.344073,0.12068,0.20888,0*4,0,12,-0.000467,0.273467,-0.090067,0.171733,-0.237533,0.136733,-0.193667,-0.007467,-0.237533,-0.1372,-0.090067,-0.171733,-0.000467,-0.273933,0.090067,-0.171733,0.237533,-0.1372,0.194133,0.007,0.237533,0.1372,0.090067,0.171267,-0.000467,0.273467,0*%
%ADD10IconRect*%
%ADD11C,0.616X0.522667*%
%ADD12IconTriangle*%
%ADD13IconStar6*%
%ADD14C,0.2032*%
%ADD15C,0.254*%
G75*


G04 Drill Drawing Start*
G54D10*
G01X-653606Y1258383D03*
G01X-653606Y2118422D03*
G54D11*
G01X-760197Y885000D03*
G01X-760197Y-285000D03*
G54D12*
G01X-760197Y525006D03*
G01X-760197Y75019D03*
G54D13*
G01X-889000Y-101600D03*
G01X-889000Y203200D03*
G01X-889000Y393700D03*
G01X-889000Y596900D03*
G01X-800100Y685800D03*
G01X-787545Y300000D03*
G01X-495300Y889000D03*
G01X-444500Y-254000D03*
G01X-444500Y1435100D03*
G01X-444500Y1930400D03*
G01X-393700Y787400D03*
G01X-342900Y558800D03*
G01X-304800Y0D03*
G01X-304800Y240000D03*
G01X-304800Y360000D03*
G01X-304800Y2082800D03*
G01X-292100Y-317500D03*
G01X-292100Y876300D03*
G01X-292100Y1384300D03*
G01X-292100Y1968500D03*
G01X-254000Y1536700D03*
G01X-241300Y-152400D03*
G01X-241300Y736600D03*
G01X-241300Y1231900D03*
G01X-241300Y1828800D03*
G01X-203200Y596900D03*
G01X-190500Y101600D03*
G01X8128000Y1473200D03*
G01X8128000Y1892300D03*
G01X8178800Y533400D03*
G01X8178800Y1727200D03*
G01X8211774Y300000D03*
G01X8267700Y139700D03*
G04 Drill Drawing End*

G04 Text Start*
G54D14*
G01X11022846Y2006694D02*
G01X11022846Y1886552D01*
G01X11022846Y2006694D02*
G01X11068566Y1886552D01*
G01X11114286Y2006694D02*
G01X11068566Y1886552D01*
G01X11114286Y2006694D02*
G01X11114286Y1886552D01*
G01X11230618Y1966562D02*
G01X11230618Y1886552D01*
G01X11230618Y1949544D02*
G01X11219188Y1960974D01*
G01X11207758Y1966562D01*
G01X11190740Y1966562D01*
G01X11179310Y1960974D01*
G01X11167880Y1949544D01*
G01X11162038Y1932272D01*
G01X11162038Y1920842D01*
G01X11167880Y1903824D01*
G01X11179310Y1892394D01*
G01X11190740Y1886552D01*
G01X11207758Y1886552D01*
G01X11219188Y1892394D01*
G01X11230618Y1903824D01*
G01X11278370Y1966562D02*
G01X11278370Y1886552D01*
G01X11278370Y1932272D02*
G01X11284212Y1949544D01*
G01X11295642Y1960974D01*
G01X11307072Y1966562D01*
G01X11324090Y1966562D01*
G01X11371842Y2006694D02*
G01X11371842Y1886552D01*
G01X11428992Y1966562D02*
G01X11371842Y1909412D01*
G01X11394702Y1932272D02*
G01X11434834Y1886552D01*
G01X12560126Y1977992D02*
G01X12554284Y1989422D01*
G01X12542854Y2000852D01*
G01X12531424Y2006694D01*
G01X12508564Y2006694D01*
G01X12497134Y2000852D01*
G01X12485704Y1989422D01*
G01X12480116Y1977992D01*
G01X12474274Y1960974D01*
G01X12474274Y1932272D01*
G01X12480116Y1915254D01*
G01X12485704Y1903824D01*
G01X12497134Y1892394D01*
G01X12508564Y1886552D01*
G01X12531424Y1886552D01*
G01X12542854Y1892394D01*
G01X12554284Y1903824D01*
G01X12560126Y1915254D01*
G01X12636580Y1966562D02*
G01X12625150Y1960974D01*
G01X12613720Y1949544D01*
G01X12607878Y1932272D01*
G01X12607878Y1920842D01*
G01X12613720Y1903824D01*
G01X12625150Y1892394D01*
G01X12636580Y1886552D01*
G01X12653598Y1886552D01*
G01X12665028Y1892394D01*
G01X12676458Y1903824D01*
G01X12682300Y1920842D01*
G01X12682300Y1932272D01*
G01X12676458Y1949544D01*
G01X12665028Y1960974D01*
G01X12653598Y1966562D01*
G01X12636580Y1966562D01*
G01X12730052Y1966562D02*
G01X12730052Y1909412D01*
G01X12735894Y1892394D01*
G01X12747324Y1886552D01*
G01X12764342Y1886552D01*
G01X12775772Y1892394D01*
G01X12793044Y1909412D01*
G01X12793044Y1966562D02*
G01X12793044Y1886552D01*
G01X12840796Y1966562D02*
G01X12840796Y1886552D01*
G01X12840796Y1943702D02*
G01X12858068Y1960974D01*
G01X12869498Y1966562D01*
G01X12886516Y1966562D01*
G01X12897946Y1960974D01*
G01X12903788Y1943702D01*
G01X12903788Y1886552D01*
G01X12968812Y2006694D02*
G01X12968812Y1909412D01*
G01X12974400Y1892394D01*
G01X12985830Y1886552D01*
G01X12997260Y1886552D01*
G01X12951540Y1966562D02*
G01X12991672Y1966562D01*
G01X13968447Y1989422D02*
G01X13957017Y2000852D01*
G01X13939999Y2006694D01*
G01X13917139Y2006694D01*
G01X13899867Y2000852D01*
G01X13888437Y1989422D01*
G01X13888437Y1977992D01*
G01X13894279Y1966562D01*
G01X13899867Y1960974D01*
G01X13911297Y1955132D01*
G01X13945587Y1943702D01*
G01X13957017Y1938114D01*
G01X13962859Y1932272D01*
G01X13968447Y1920842D01*
G01X13968447Y1903824D01*
G01X13957017Y1892394D01*
G01X13939999Y1886552D01*
G01X13917139Y1886552D01*
G01X13899867Y1892394D01*
G01X13888437Y1903824D01*
G01X14016199Y2006694D02*
G01X14022041Y2000852D01*
G01X14027629Y2006694D01*
G01X14022041Y2012282D01*
G01X14016199Y2006694D01*
G01X14022041Y1966562D02*
G01X14022041Y1886552D01*
G01X14138373Y1966562D02*
G01X14075381Y1886552D01*
G01X14075381Y1966562D02*
G01X14138373Y1966562D01*
G01X14075381Y1886552D02*
G01X14138373Y1886552D01*
G01X14186125Y1932272D02*
G01X14254705Y1932272D01*
G01X14254705Y1943702D01*
G01X14249117Y1955132D01*
G01X14243275Y1960974D01*
G01X14231845Y1966562D01*
G01X14214827Y1966562D01*
G01X14203397Y1960974D01*
G01X14191967Y1949544D01*
G01X14186125Y1932272D01*
G01X14186125Y1920842D01*
G01X14191967Y1903824D01*
G01X14203397Y1892394D01*
G01X14214827Y1886552D01*
G01X14231845Y1886552D01*
G01X14243275Y1892394D01*
G01X14254705Y1903824D01*
G01X17782402Y2006694D02*
G01X17782402Y1886552D01*
G01X17782402Y2006694D02*
G01X17833964Y2006694D01*
G01X17850982Y2000852D01*
G01X17856824Y1995264D01*
G01X17862412Y1983834D01*
G01X17862412Y1966562D01*
G01X17856824Y1955132D01*
G01X17850982Y1949544D01*
G01X17833964Y1943702D01*
G01X17782402Y1943702D01*
G01X17910164Y2006694D02*
G01X17910164Y1886552D01*
G01X18026496Y1966562D02*
G01X18026496Y1886552D01*
G01X18026496Y1949544D02*
G01X18015066Y1960974D01*
G01X18003636Y1966562D01*
G01X17986618Y1966562D01*
G01X17975188Y1960974D01*
G01X17963758Y1949544D01*
G01X17957916Y1932272D01*
G01X17957916Y1920842D01*
G01X17963758Y1903824D01*
G01X17975188Y1892394D01*
G01X17986618Y1886552D01*
G01X18003636Y1886552D01*
G01X18015066Y1892394D01*
G01X18026496Y1903824D01*
G01X18091520Y2006694D02*
G01X18091520Y1909412D01*
G01X18097108Y1892394D01*
G01X18108538Y1886552D01*
G01X18119968Y1886552D01*
G01X18074248Y1966562D02*
G01X18114380Y1966562D01*
G01X18167720Y1932272D02*
G01X18236300Y1932272D01*
G01X18236300Y1943702D01*
G01X18230712Y1955132D01*
G01X18224870Y1960974D01*
G01X18213440Y1966562D01*
G01X18196422Y1966562D01*
G01X18184992Y1960974D01*
G01X18173562Y1949544D01*
G01X18167720Y1932272D01*
G01X18167720Y1920842D01*
G01X18173562Y1903824D01*
G01X18184992Y1892394D01*
G01X18196422Y1886552D01*
G01X18213440Y1886552D01*
G01X18224870Y1892394D01*
G01X18236300Y1903824D01*
G01X18352632Y2006694D02*
G01X18352632Y1886552D01*
G01X18352632Y1949544D02*
G01X18341202Y1960974D01*
G01X18329772Y1966562D01*
G01X18312754Y1966562D01*
G01X18301324Y1960974D01*
G01X18289894Y1949544D01*
G01X18284052Y1932272D01*
G01X18284052Y1920842D01*
G01X18289894Y1903824D01*
G01X18301324Y1892394D01*
G01X18312754Y1886552D01*
G01X18329772Y1886552D01*
G01X18341202Y1892394D01*
G01X18352632Y1903824D01*
G01X19323820Y1989422D02*
G01X19312390Y2000852D01*
G01X19295372Y2006694D01*
G01X19272512Y2006694D01*
G01X19255240Y2000852D01*
G01X19243810Y1989422D01*
G01X19243810Y1977992D01*
G01X19249652Y1966562D01*
G01X19255240Y1960974D01*
G01X19266670Y1955132D01*
G01X19300960Y1943702D01*
G01X19312390Y1938114D01*
G01X19318232Y1932272D01*
G01X19323820Y1920842D01*
G01X19323820Y1903824D01*
G01X19312390Y1892394D01*
G01X19295372Y1886552D01*
G01X19272512Y1886552D01*
G01X19255240Y1892394D01*
G01X19243810Y1903824D01*
G01X19371572Y2006694D02*
G01X19371572Y1886552D01*
G01X19371572Y1943702D02*
G01X19388844Y1960974D01*
G01X19400274Y1966562D01*
G01X19417292Y1966562D01*
G01X19428722Y1960974D01*
G01X19434564Y1943702D01*
G01X19434564Y1886552D01*
G01X19550896Y1966562D02*
G01X19550896Y1886552D01*
G01X19550896Y1949544D02*
G01X19539466Y1960974D01*
G01X19528036Y1966562D01*
G01X19511018Y1966562D01*
G01X19499588Y1960974D01*
G01X19488158Y1949544D01*
G01X19482316Y1932272D01*
G01X19482316Y1920842D01*
G01X19488158Y1903824D01*
G01X19499588Y1892394D01*
G01X19511018Y1886552D01*
G01X19528036Y1886552D01*
G01X19539466Y1892394D01*
G01X19550896Y1903824D01*
G01X19598648Y1966562D02*
G01X19598648Y1846674D01*
G01X19598648Y1949544D02*
G01X19610078Y1960974D01*
G01X19621508Y1966562D01*
G01X19638780Y1966562D01*
G01X19650210Y1960974D01*
G01X19661640Y1949544D01*
G01X19667228Y1932272D01*
G01X19667228Y1920842D01*
G01X19661640Y1903824D01*
G01X19650210Y1892394D01*
G01X19638780Y1886552D01*
G01X19621508Y1886552D01*
G01X19610078Y1892394D01*
G01X19598648Y1903824D01*
G01X19714980Y1932272D02*
G01X19783560Y1932272D01*
G01X19783560Y1943702D01*
G01X19777972Y1955132D01*
G01X19772130Y1960974D01*
G01X19760700Y1966562D01*
G01X19743682Y1966562D01*
G01X19732252Y1960974D01*
G01X19720822Y1949544D01*
G01X19714980Y1932272D01*
G01X19714980Y1920842D01*
G01X19720822Y1903824D01*
G01X19732252Y1892394D01*
G01X19743682Y1886552D01*
G01X19760700Y1886552D01*
G01X19772130Y1892394D01*
G01X19783560Y1903824D01*
G01X20674991Y2006694D02*
G01X20720711Y1886552D01*
G01X20766431Y2006694D02*
G01X20720711Y1886552D01*
G01X20814183Y2006694D02*
G01X20820025Y2000852D01*
G01X20825613Y2006694D01*
G01X20820025Y2012282D01*
G01X20814183Y2006694D01*
G01X20820025Y1966562D02*
G01X20820025Y1886552D01*
G01X20941945Y1966562D02*
G01X20941945Y1886552D01*
G01X20941945Y1949544D02*
G01X20930515Y1960974D01*
G01X20919085Y1966562D01*
G01X20902067Y1966562D01*
G01X20890637Y1960974D01*
G01X20879207Y1949544D01*
G01X20873365Y1932272D01*
G01X20873365Y1920842D01*
G01X20879207Y1903824D01*
G01X20890637Y1892394D01*
G01X20902067Y1886552D01*
G01X20919085Y1886552D01*
G01X20930515Y1892394D01*
G01X20941945Y1903824D01*
G01X21092567Y2029554D02*
G01X20989697Y1846674D01*
G01X21140319Y2006694D02*
G01X21140319Y1886552D01*
G01X21140319Y2006694D02*
G01X21191881Y2006694D01*
G01X21208899Y2000852D01*
G01X21214741Y1995264D01*
G01X21220329Y1983834D01*
G01X21220329Y1966562D01*
G01X21214741Y1955132D01*
G01X21208899Y1949544D01*
G01X21191881Y1943702D01*
G01X21140319Y1943702D01*
G01X21336661Y1966562D02*
G01X21336661Y1886552D01*
G01X21336661Y1949544D02*
G01X21325231Y1960974D01*
G01X21313801Y1966562D01*
G01X21296783Y1966562D01*
G01X21285353Y1960974D01*
G01X21273923Y1949544D01*
G01X21268081Y1932272D01*
G01X21268081Y1920842D01*
G01X21273923Y1903824D01*
G01X21285353Y1892394D01*
G01X21296783Y1886552D01*
G01X21313801Y1886552D01*
G01X21325231Y1892394D01*
G01X21336661Y1903824D01*
G01X21452993Y2006694D02*
G01X21452993Y1886552D01*
G01X21452993Y1949544D02*
G01X21441563Y1960974D01*
G01X21430133Y1966562D01*
G01X21413115Y1966562D01*
G01X21401685Y1960974D01*
G01X21390255Y1949544D01*
G01X21384413Y1932272D01*
G01X21384413Y1920842D01*
G01X21390255Y1903824D01*
G01X21401685Y1892394D01*
G01X21413115Y1886552D01*
G01X21430133Y1886552D01*
G01X21441563Y1892394D01*
G01X21452993Y1903824D01*
G01X22344170Y2006694D02*
G01X22344170Y1886552D01*
G01X22344170Y2006694D02*
G01X22395732Y2006694D01*
G01X22412750Y2000852D01*
G01X22418592Y1995264D01*
G01X22424180Y1983834D01*
G01X22424180Y1966562D01*
G01X22418592Y1955132D01*
G01X22412750Y1949544D01*
G01X22395732Y1943702D01*
G01X22344170Y1943702D01*
G01X22540512Y1966562D02*
G01X22540512Y1886552D01*
G01X22540512Y1949544D02*
G01X22529082Y1960974D01*
G01X22517652Y1966562D01*
G01X22500634Y1966562D01*
G01X22489204Y1960974D01*
G01X22477774Y1949544D01*
G01X22471932Y1932272D01*
G01X22471932Y1920842D01*
G01X22477774Y1903824D01*
G01X22489204Y1892394D01*
G01X22500634Y1886552D01*
G01X22517652Y1886552D01*
G01X22529082Y1892394D01*
G01X22540512Y1903824D01*
G01X22656844Y2006694D02*
G01X22656844Y1886552D01*
G01X22656844Y1949544D02*
G01X22645414Y1960974D01*
G01X22633984Y1966562D01*
G01X22616966Y1966562D01*
G01X22605536Y1960974D01*
G01X22594106Y1949544D01*
G01X22588264Y1932272D01*
G01X22588264Y1920842D01*
G01X22594106Y1903824D01*
G01X22605536Y1892394D01*
G01X22616966Y1886552D01*
G01X22633984Y1886552D01*
G01X22645414Y1892394D01*
G01X22656844Y1903824D01*
G01X22912622Y1989422D02*
G01X22901192Y2000852D01*
G01X22884174Y2006694D01*
G01X22861314Y2006694D01*
G01X22844042Y2000852D01*
G01X22832612Y1989422D01*
G01X22832612Y1977992D01*
G01X22838454Y1966562D01*
G01X22844042Y1960974D01*
G01X22855472Y1955132D01*
G01X22889762Y1943702D01*
G01X22901192Y1938114D01*
G01X22907034Y1932272D01*
G01X22912622Y1920842D01*
G01X22912622Y1903824D01*
G01X22901192Y1892394D01*
G01X22884174Y1886552D01*
G01X22861314Y1886552D01*
G01X22844042Y1892394D01*
G01X22832612Y1903824D01*
G01X22960374Y2006694D02*
G01X22960374Y1886552D01*
G01X22960374Y1943702D02*
G01X22977646Y1960974D01*
G01X22989076Y1966562D01*
G01X23006094Y1966562D01*
G01X23017524Y1960974D01*
G01X23023366Y1943702D01*
G01X23023366Y1886552D01*
G01X23139698Y1966562D02*
G01X23139698Y1886552D01*
G01X23139698Y1949544D02*
G01X23128268Y1960974D01*
G01X23116838Y1966562D01*
G01X23099820Y1966562D01*
G01X23088390Y1960974D01*
G01X23076960Y1949544D01*
G01X23071118Y1932272D01*
G01X23071118Y1920842D01*
G01X23076960Y1903824D01*
G01X23088390Y1892394D01*
G01X23099820Y1886552D01*
G01X23116838Y1886552D01*
G01X23128268Y1892394D01*
G01X23139698Y1903824D01*
G01X23187450Y1966562D02*
G01X23187450Y1846674D01*
G01X23187450Y1949544D02*
G01X23198880Y1960974D01*
G01X23210310Y1966562D01*
G01X23227582Y1966562D01*
G01X23239012Y1960974D01*
G01X23250442Y1949544D01*
G01X23256030Y1932272D01*
G01X23256030Y1920842D01*
G01X23250442Y1903824D01*
G01X23239012Y1892394D01*
G01X23227582Y1886552D01*
G01X23210310Y1886552D01*
G01X23198880Y1892394D01*
G01X23187450Y1903824D01*
G01X23303782Y1932272D02*
G01X23372362Y1932272D01*
G01X23372362Y1943702D01*
G01X23366774Y1955132D01*
G01X23360932Y1960974D01*
G01X23349502Y1966562D01*
G01X23332484Y1966562D01*
G01X23321054Y1960974D01*
G01X23309624Y1949544D01*
G01X23303782Y1932272D01*
G01X23303782Y1920842D01*
G01X23309624Y1903824D01*
G01X23321054Y1892394D01*
G01X23332484Y1886552D01*
G01X23349502Y1886552D01*
G01X23360932Y1892394D01*
G01X23372362Y1903824D01*
G01X24263539Y2006694D02*
G01X24263539Y1886552D01*
G01X24263539Y1886552D02*
G01X24332119Y1886552D01*
G01X24448451Y1966562D02*
G01X24448451Y1886552D01*
G01X24448451Y1949544D02*
G01X24437021Y1960974D01*
G01X24425591Y1966562D01*
G01X24408573Y1966562D01*
G01X24397143Y1960974D01*
G01X24385713Y1949544D01*
G01X24379871Y1932272D01*
G01X24379871Y1920842D01*
G01X24385713Y1903824D01*
G01X24397143Y1892394D01*
G01X24408573Y1886552D01*
G01X24425591Y1886552D01*
G01X24437021Y1892394D01*
G01X24448451Y1903824D01*
G01X24502045Y1966562D02*
G01X24536335Y1886552D01*
G01X24570625Y1966562D02*
G01X24536335Y1886552D01*
G01X24524905Y1863692D01*
G01X24513475Y1852262D01*
G01X24502045Y1846674D01*
G01X24496203Y1846674D01*
G01X24618377Y1932272D02*
G01X24686957Y1932272D01*
G01X24686957Y1943702D01*
G01X24681369Y1955132D01*
G01X24675527Y1960974D01*
G01X24664097Y1966562D01*
G01X24647079Y1966562D01*
G01X24635649Y1960974D01*
G01X24624219Y1949544D01*
G01X24618377Y1932272D01*
G01X24618377Y1920842D01*
G01X24624219Y1903824D01*
G01X24635649Y1892394D01*
G01X24647079Y1886552D01*
G01X24664097Y1886552D01*
G01X24675527Y1892394D01*
G01X24686957Y1903824D01*
G01X24734709Y1966562D02*
G01X24734709Y1886552D01*
G01X24734709Y1932272D02*
G01X24740551Y1949544D01*
G01X24751981Y1960974D01*
G01X24763411Y1966562D01*
G01X24780429Y1966562D01*
G01X24956197Y2006694D02*
G01X24956197Y1886552D01*
G01X24956197Y2006694D02*
G01X25007759Y2006694D01*
G01X25024777Y2000852D01*
G01X25030619Y1995264D01*
G01X25036207Y1983834D01*
G01X25036207Y1966562D01*
G01X25030619Y1955132D01*
G01X25024777Y1949544D01*
G01X25007759Y1943702D01*
G01X24956197Y1943702D01*
G01X25152539Y1966562D02*
G01X25152539Y1886552D01*
G01X25152539Y1949544D02*
G01X25141109Y1960974D01*
G01X25129679Y1966562D01*
G01X25112661Y1966562D01*
G01X25101231Y1960974D01*
G01X25089801Y1949544D01*
G01X25083959Y1932272D01*
G01X25083959Y1920842D01*
G01X25089801Y1903824D01*
G01X25101231Y1892394D01*
G01X25112661Y1886552D01*
G01X25129679Y1886552D01*
G01X25141109Y1892394D01*
G01X25152539Y1903824D01*
G01X25200291Y2006694D02*
G01X25206133Y2000852D01*
G01X25211721Y2006694D01*
G01X25206133Y2012282D01*
G01X25200291Y2006694D01*
G01X25206133Y1966562D02*
G01X25206133Y1886552D01*
G01X25259473Y1966562D02*
G01X25259473Y1886552D01*
G01X25259473Y1932272D02*
G01X25265315Y1949544D01*
G01X25276745Y1960974D01*
G01X25288175Y1966562D01*
G01X25305193Y1966562D01*
G01X12480116Y1397421D02*
G01X12480116Y1403263D01*
G01X12485704Y1414693D01*
G01X12491546Y1420281D01*
G01X12502976Y1426123D01*
G01X12525836Y1426123D01*
G01X12537266Y1420281D01*
G01X12542854Y1414693D01*
G01X12548696Y1403263D01*
G01X12548696Y1391833D01*
G01X12542854Y1380403D01*
G01X12531424Y1363131D01*
G01X12474274Y1305981D01*
G01X12554284Y1305981D01*
G01X13894279Y1397421D02*
G01X13894279Y1403263D01*
G01X13899867Y1414693D01*
G01X13905709Y1420281D01*
G01X13917139Y1426123D01*
G01X13939999Y1426123D01*
G01X13951429Y1420281D01*
G01X13957017Y1414693D01*
G01X13962859Y1403263D01*
G01X13962859Y1391833D01*
G01X13957017Y1380403D01*
G01X13945587Y1363131D01*
G01X13888437Y1305981D01*
G01X13968447Y1305981D01*
G01X14027629Y1426123D02*
G01X14090621Y1426123D01*
G01X14056331Y1380403D01*
G01X14073349Y1380403D01*
G01X14084779Y1374561D01*
G01X14090621Y1368973D01*
G01X14096209Y1351701D01*
G01X14096209Y1340271D01*
G01X14090621Y1323253D01*
G01X14079191Y1311823D01*
G01X14061919Y1305981D01*
G01X14044901Y1305981D01*
G01X14027629Y1311823D01*
G01X14022041Y1317411D01*
G01X14016199Y1328841D01*
G01X14149803Y1334683D02*
G01X14143961Y1328841D01*
G01X14149803Y1323253D01*
G01X14155391Y1328841D01*
G01X14149803Y1334683D01*
G01X14271723Y1408851D02*
G01X14266135Y1420281D01*
G01X14248863Y1426123D01*
G01X14237433Y1426123D01*
G01X14220415Y1420281D01*
G01X14208985Y1403263D01*
G01X14203143Y1374561D01*
G01X14203143Y1346113D01*
G01X14208985Y1323253D01*
G01X14220415Y1311823D01*
G01X14237433Y1305981D01*
G01X14243275Y1305981D01*
G01X14260293Y1311823D01*
G01X14271723Y1323253D01*
G01X14277565Y1340271D01*
G01X14277565Y1346113D01*
G01X14271723Y1363131D01*
G01X14260293Y1374561D01*
G01X14243275Y1380403D01*
G01X14237433Y1380403D01*
G01X14220415Y1374561D01*
G01X14208985Y1363131D01*
G01X14203143Y1346113D01*
G01X14325317Y1385991D02*
G01X14388309Y1305981D01*
G01X14388309Y1385991D02*
G01X14325317Y1305981D01*
G01X14493211Y1426123D02*
G01X14436061Y1346113D01*
G01X14521913Y1346113D01*
G01X14493211Y1426123D02*
G01X14493211Y1305981D01*
G01X14649675Y1426123D02*
G01X14592525Y1305981D01*
G01X14569665Y1426123D02*
G01X14649675Y1426123D01*
G01X14703269Y1334683D02*
G01X14697427Y1328841D01*
G01X14703269Y1323253D01*
G01X14708857Y1328841D01*
G01X14703269Y1334683D01*
G01X14762451Y1397421D02*
G01X14762451Y1403263D01*
G01X14768039Y1414693D01*
G01X14773881Y1420281D01*
G01X14785311Y1426123D01*
G01X14808171Y1426123D01*
G01X14819601Y1420281D01*
G01X14825189Y1414693D01*
G01X14831031Y1403263D01*
G01X14831031Y1391833D01*
G01X14825189Y1380403D01*
G01X14813759Y1363131D01*
G01X14756609Y1305981D01*
G01X14836619Y1305981D01*
G01X14884371Y1385991D02*
G01X14884371Y1305981D01*
G01X14884371Y1363131D02*
G01X14901643Y1380403D01*
G01X14913073Y1385991D01*
G01X14930091Y1385991D01*
G01X14941521Y1380403D01*
G01X14947363Y1363131D01*
G01X14947363Y1305981D01*
G01X14947363Y1363131D02*
G01X14964381Y1380403D01*
G01X14975811Y1385991D01*
G01X14993083Y1385991D01*
G01X15004513Y1380403D01*
G01X15010101Y1363131D01*
G01X15010101Y1305981D01*
G01X15057853Y1426123D02*
G01X15063695Y1420281D01*
G01X15069283Y1426123D01*
G01X15063695Y1431711D01*
G01X15057853Y1426123D01*
G01X15063695Y1385991D02*
G01X15063695Y1305981D01*
G01X15117035Y1426123D02*
G01X15117035Y1305981D01*
G01X15204919Y1448983D02*
G01X15193489Y1437553D01*
G01X15182059Y1420281D01*
G01X15170629Y1397421D01*
G01X15164787Y1368973D01*
G01X15164787Y1346113D01*
G01X15170629Y1317411D01*
G01X15182059Y1294551D01*
G01X15193489Y1277533D01*
G01X15204919Y1266103D01*
G01X15286961Y1426123D02*
G01X15269943Y1420281D01*
G01X15258513Y1403263D01*
G01X15252671Y1374561D01*
G01X15252671Y1357543D01*
G01X15258513Y1328841D01*
G01X15269943Y1311823D01*
G01X15286961Y1305981D01*
G01X15298391Y1305981D01*
G01X15315663Y1311823D01*
G01X15327093Y1328841D01*
G01X15332681Y1357543D01*
G01X15332681Y1374561D01*
G01X15327093Y1403263D01*
G01X15315663Y1420281D01*
G01X15298391Y1426123D01*
G01X15286961Y1426123D01*
G01X15386275Y1334683D02*
G01X15380433Y1328841D01*
G01X15386275Y1323253D01*
G01X15391863Y1328841D01*
G01X15386275Y1334683D01*
G01X15508195Y1408851D02*
G01X15502607Y1420281D01*
G01X15485335Y1426123D01*
G01X15473905Y1426123D01*
G01X15456887Y1420281D01*
G01X15445457Y1403263D01*
G01X15439615Y1374561D01*
G01X15439615Y1346113D01*
G01X15445457Y1323253D01*
G01X15456887Y1311823D01*
G01X15473905Y1305981D01*
G01X15479747Y1305981D01*
G01X15496765Y1311823D01*
G01X15508195Y1323253D01*
G01X15514037Y1340271D01*
G01X15514037Y1346113D01*
G01X15508195Y1363131D01*
G01X15496765Y1374561D01*
G01X15479747Y1380403D01*
G01X15473905Y1380403D01*
G01X15456887Y1374561D01*
G01X15445457Y1363131D01*
G01X15439615Y1346113D01*
G01X15596079Y1426123D02*
G01X15579061Y1420281D01*
G01X15567631Y1403263D01*
G01X15561789Y1374561D01*
G01X15561789Y1357543D01*
G01X15567631Y1328841D01*
G01X15579061Y1311823D01*
G01X15596079Y1305981D01*
G01X15607509Y1305981D01*
G01X15624781Y1311823D01*
G01X15636211Y1328841D01*
G01X15641799Y1357543D01*
G01X15641799Y1374561D01*
G01X15636211Y1403263D01*
G01X15624781Y1420281D01*
G01X15607509Y1426123D01*
G01X15596079Y1426123D01*
G01X15723841Y1426123D02*
G01X15706823Y1420281D01*
G01X15695393Y1403263D01*
G01X15689551Y1374561D01*
G01X15689551Y1357543D01*
G01X15695393Y1328841D01*
G01X15706823Y1311823D01*
G01X15723841Y1305981D01*
G01X15735271Y1305981D01*
G01X15752543Y1311823D01*
G01X15763973Y1328841D01*
G01X15769561Y1357543D01*
G01X15769561Y1374561D01*
G01X15763973Y1403263D01*
G01X15752543Y1420281D01*
G01X15735271Y1426123D01*
G01X15723841Y1426123D01*
G01X15817313Y1385991D02*
G01X15880305Y1305981D01*
G01X15880305Y1385991D02*
G01X15817313Y1305981D01*
G01X15928057Y1403263D02*
G01X15939487Y1408851D01*
G01X15956759Y1426123D01*
G01X15956759Y1305981D01*
G01X16010353Y1334683D02*
G01X16004511Y1328841D01*
G01X16010353Y1323253D01*
G01X16015941Y1328841D01*
G01X16010353Y1334683D01*
G01X16069535Y1397421D02*
G01X16069535Y1403263D01*
G01X16075123Y1414693D01*
G01X16080965Y1420281D01*
G01X16092395Y1426123D01*
G01X16115255Y1426123D01*
G01X16126685Y1420281D01*
G01X16132273Y1414693D01*
G01X16138115Y1403263D01*
G01X16138115Y1391833D01*
G01X16132273Y1380403D01*
G01X16120843Y1363131D01*
G01X16063693Y1305981D01*
G01X16143703Y1305981D01*
G01X16225745Y1426123D02*
G01X16208727Y1420281D01*
G01X16197297Y1403263D01*
G01X16191455Y1374561D01*
G01X16191455Y1357543D01*
G01X16197297Y1328841D01*
G01X16208727Y1311823D01*
G01X16225745Y1305981D01*
G01X16237175Y1305981D01*
G01X16254447Y1311823D01*
G01X16265877Y1328841D01*
G01X16271465Y1357543D01*
G01X16271465Y1374561D01*
G01X16265877Y1403263D01*
G01X16254447Y1420281D01*
G01X16237175Y1426123D01*
G01X16225745Y1426123D01*
G01X16353507Y1426123D02*
G01X16336489Y1420281D01*
G01X16325059Y1403263D01*
G01X16319217Y1374561D01*
G01X16319217Y1357543D01*
G01X16325059Y1328841D01*
G01X16336489Y1311823D01*
G01X16353507Y1305981D01*
G01X16364937Y1305981D01*
G01X16382209Y1311823D01*
G01X16393639Y1328841D01*
G01X16399227Y1357543D01*
G01X16399227Y1374561D01*
G01X16393639Y1403263D01*
G01X16382209Y1420281D01*
G01X16364937Y1426123D01*
G01X16353507Y1426123D01*
G01X16446979Y1385991D02*
G01X16446979Y1305981D01*
G01X16446979Y1363131D02*
G01X16464251Y1380403D01*
G01X16475681Y1385991D01*
G01X16492699Y1385991D01*
G01X16504129Y1380403D01*
G01X16509971Y1363131D01*
G01X16509971Y1305981D01*
G01X16509971Y1363131D02*
G01X16526989Y1380403D01*
G01X16538419Y1385991D01*
G01X16555691Y1385991D01*
G01X16567121Y1380403D01*
G01X16572709Y1363131D01*
G01X16572709Y1305981D01*
G01X16620461Y1385991D02*
G01X16620461Y1305981D01*
G01X16620461Y1363131D02*
G01X16637733Y1380403D01*
G01X16649163Y1385991D01*
G01X16666181Y1385991D01*
G01X16677611Y1380403D01*
G01X16683453Y1363131D01*
G01X16683453Y1305981D01*
G01X16683453Y1363131D02*
G01X16700471Y1380403D01*
G01X16711901Y1385991D01*
G01X16729173Y1385991D01*
G01X16740603Y1380403D01*
G01X16746191Y1363131D01*
G01X16746191Y1305981D01*
G01X16793943Y1448983D02*
G01X16805373Y1437553D01*
G01X16816803Y1420281D01*
G01X16828233Y1397421D01*
G01X16834075Y1368973D01*
G01X16834075Y1346113D01*
G01X16828233Y1317411D01*
G01X16816803Y1294551D01*
G01X16805373Y1277533D01*
G01X16793943Y1266103D01*
G01X17782402Y1426123D02*
G01X17782402Y1305981D01*
G01X17782402Y1426123D02*
G01X17833964Y1426123D01*
G01X17850982Y1420281D01*
G01X17856824Y1414693D01*
G01X17862412Y1403263D01*
G01X17862412Y1385991D01*
G01X17856824Y1374561D01*
G01X17850982Y1368973D01*
G01X17833964Y1363131D01*
G01X17782402Y1363131D01*
G01X17950296Y1426123D02*
G01X17950296Y1305981D01*
G01X17910164Y1426123D02*
G01X17990174Y1426123D01*
G01X18037926Y1426123D02*
G01X18037926Y1305981D01*
G01X18117936Y1426123D02*
G01X18117936Y1305981D01*
G01X18037926Y1368973D02*
G01X18117936Y1368973D01*
G01X19323820Y1408851D02*
G01X19312390Y1420281D01*
G01X19295372Y1426123D01*
G01X19272512Y1426123D01*
G01X19255240Y1420281D01*
G01X19243810Y1408851D01*
G01X19243810Y1397421D01*
G01X19249652Y1385991D01*
G01X19255240Y1380403D01*
G01X19266670Y1374561D01*
G01X19300960Y1363131D01*
G01X19312390Y1357543D01*
G01X19318232Y1351701D01*
G01X19323820Y1340271D01*
G01X19323820Y1323253D01*
G01X19312390Y1311823D01*
G01X19295372Y1305981D01*
G01X19272512Y1305981D01*
G01X19255240Y1311823D01*
G01X19243810Y1323253D01*
G01X19371572Y1426123D02*
G01X19371572Y1305981D01*
G01X19448026Y1385991D02*
G01X19436596Y1380403D01*
G01X19425166Y1368973D01*
G01X19419324Y1351701D01*
G01X19419324Y1340271D01*
G01X19425166Y1323253D01*
G01X19436596Y1311823D01*
G01X19448026Y1305981D01*
G01X19465044Y1305981D01*
G01X19476474Y1311823D01*
G01X19487904Y1323253D01*
G01X19493746Y1340271D01*
G01X19493746Y1351701D01*
G01X19487904Y1368973D01*
G01X19476474Y1380403D01*
G01X19465044Y1385991D01*
G01X19448026Y1385991D01*
G01X19558770Y1426123D02*
G01X19558770Y1328841D01*
G01X19564358Y1311823D01*
G01X19575788Y1305981D01*
G01X19587218Y1305981D01*
G01X19541498Y1385991D02*
G01X19581630Y1385991D01*
G01X20674991Y1426123D02*
G01X20674991Y1305981D01*
G01X20674991Y1426123D02*
G01X20726553Y1426123D01*
G01X20743571Y1420281D01*
G01X20749413Y1414693D01*
G01X20755001Y1403263D01*
G01X20755001Y1385991D01*
G01X20749413Y1374561D01*
G01X20743571Y1368973D01*
G01X20726553Y1363131D01*
G01X20674991Y1363131D01*
G01X20871333Y1385991D02*
G01X20871333Y1305981D01*
G01X20871333Y1368973D02*
G01X20859903Y1380403D01*
G01X20848473Y1385991D01*
G01X20831455Y1385991D01*
G01X20820025Y1380403D01*
G01X20808595Y1368973D01*
G01X20802753Y1351701D01*
G01X20802753Y1340271D01*
G01X20808595Y1323253D01*
G01X20820025Y1311823D01*
G01X20831455Y1305981D01*
G01X20848473Y1305981D01*
G01X20859903Y1311823D01*
G01X20871333Y1323253D01*
G01X20987665Y1426123D02*
G01X20987665Y1305981D01*
G01X20987665Y1368973D02*
G01X20976235Y1380403D01*
G01X20964805Y1385991D01*
G01X20947787Y1385991D01*
G01X20936357Y1380403D01*
G01X20924927Y1368973D01*
G01X20919085Y1351701D01*
G01X20919085Y1340271D01*
G01X20924927Y1323253D01*
G01X20936357Y1311823D01*
G01X20947787Y1305981D01*
G01X20964805Y1305981D01*
G01X20976235Y1311823D01*
G01X20987665Y1323253D01*
G01X22378460Y1426123D02*
G01X22367030Y1420281D01*
G01X22355600Y1408851D01*
G01X22350012Y1397421D01*
G01X22344170Y1380403D01*
G01X22344170Y1351701D01*
G01X22350012Y1334683D01*
G01X22355600Y1323253D01*
G01X22367030Y1311823D01*
G01X22378460Y1305981D01*
G01X22401320Y1305981D01*
G01X22412750Y1311823D01*
G01X22424180Y1323253D01*
G01X22430022Y1334683D01*
G01X22435610Y1351701D01*
G01X22435610Y1380403D01*
G01X22430022Y1397421D01*
G01X22424180Y1408851D01*
G01X22412750Y1420281D01*
G01X22401320Y1426123D01*
G01X22378460Y1426123D01*
G01X22483362Y1385991D02*
G01X22517652Y1305981D01*
G01X22551942Y1385991D02*
G01X22517652Y1305981D01*
G01X22668274Y1385991D02*
G01X22668274Y1305981D01*
G01X22668274Y1368973D02*
G01X22656844Y1380403D01*
G01X22645414Y1385991D01*
G01X22628396Y1385991D01*
G01X22616966Y1380403D01*
G01X22605536Y1368973D01*
G01X22599694Y1351701D01*
G01X22599694Y1340271D01*
G01X22605536Y1323253D01*
G01X22616966Y1311823D01*
G01X22628396Y1305981D01*
G01X22645414Y1305981D01*
G01X22656844Y1311823D01*
G01X22668274Y1323253D01*
G01X22716026Y1426123D02*
G01X22716026Y1305981D01*
G01X24303671Y1426123D02*
G01X24303671Y1305981D01*
G01X24263539Y1426123D02*
G01X24343549Y1426123D01*
G01X24420003Y1385991D02*
G01X24408573Y1380403D01*
G01X24397143Y1368973D01*
G01X24391301Y1351701D01*
G01X24391301Y1340271D01*
G01X24397143Y1323253D01*
G01X24408573Y1311823D01*
G01X24420003Y1305981D01*
G01X24437021Y1305981D01*
G01X24448451Y1311823D01*
G01X24459881Y1323253D01*
G01X24465723Y1340271D01*
G01X24465723Y1351701D01*
G01X24459881Y1368973D01*
G01X24448451Y1380403D01*
G01X24437021Y1385991D01*
G01X24420003Y1385991D01*
G01X24513475Y1385991D02*
G01X24513475Y1266103D01*
G01X24513475Y1368973D02*
G01X24524905Y1380403D01*
G01X24536335Y1385991D01*
G01X24553607Y1385991D01*
G01X24565037Y1380403D01*
G01X24576467Y1368973D01*
G01X24582055Y1351701D01*
G01X24582055Y1340271D01*
G01X24576467Y1323253D01*
G01X24565037Y1311823D01*
G01X24553607Y1305981D01*
G01X24536335Y1305981D01*
G01X24524905Y1311823D01*
G01X24513475Y1323253D01*
G01X24757823Y1426123D02*
G01X24757823Y1305981D01*
G01X24757823Y1305981D02*
G01X24826403Y1305981D01*
G01X24942735Y1385991D02*
G01X24942735Y1305981D01*
G01X24942735Y1368973D02*
G01X24931305Y1380403D01*
G01X24919875Y1385991D01*
G01X24902857Y1385991D01*
G01X24891427Y1380403D01*
G01X24879997Y1368973D01*
G01X24874155Y1351701D01*
G01X24874155Y1340271D01*
G01X24879997Y1323253D01*
G01X24891427Y1311823D01*
G01X24902857Y1305981D01*
G01X24919875Y1305981D01*
G01X24931305Y1311823D01*
G01X24942735Y1323253D01*
G01X24996329Y1385991D02*
G01X25030619Y1305981D01*
G01X25064909Y1385991D02*
G01X25030619Y1305981D01*
G01X25019189Y1283121D01*
G01X25007759Y1271691D01*
G01X24996329Y1266103D01*
G01X24990487Y1266103D01*
G01X25112661Y1351701D02*
G01X25181241Y1351701D01*
G01X25181241Y1363131D01*
G01X25175653Y1374561D01*
G01X25169811Y1380403D01*
G01X25158381Y1385991D01*
G01X25141363Y1385991D01*
G01X25129933Y1380403D01*
G01X25118503Y1368973D01*
G01X25112661Y1351701D01*
G01X25112661Y1340271D01*
G01X25118503Y1323253D01*
G01X25129933Y1311823D01*
G01X25141363Y1305981D01*
G01X25158381Y1305981D01*
G01X25169811Y1311823D01*
G01X25181241Y1323253D01*
G01X25228993Y1385991D02*
G01X25228993Y1305981D01*
G01X25228993Y1351701D02*
G01X25234835Y1368973D01*
G01X25246265Y1380403D01*
G01X25257695Y1385991D01*
G01X25274713Y1385991D01*
G01X25322465Y1357543D02*
G01X25425335Y1357543D01*
G01X25473087Y1426123D02*
G01X25473087Y1305981D01*
G01X25473087Y1426123D02*
G01X25524649Y1426123D01*
G01X25541667Y1420281D01*
G01X25547509Y1414693D01*
G01X25553097Y1403263D01*
G01X25553097Y1391833D01*
G01X25547509Y1380403D01*
G01X25541667Y1374561D01*
G01X25524649Y1368973D01*
G01X25473087Y1368973D02*
G01X25524649Y1368973D01*
G01X25541667Y1363131D01*
G01X25547509Y1357543D01*
G01X25553097Y1346113D01*
G01X25553097Y1328841D01*
G01X25547509Y1317411D01*
G01X25541667Y1311823D01*
G01X25524649Y1305981D01*
G01X25473087Y1305981D01*
G01X25629551Y1385991D02*
G01X25618121Y1380403D01*
G01X25606691Y1368973D01*
G01X25600849Y1351701D01*
G01X25600849Y1340271D01*
G01X25606691Y1323253D01*
G01X25618121Y1311823D01*
G01X25629551Y1305981D01*
G01X25646569Y1305981D01*
G01X25657999Y1311823D01*
G01X25669429Y1323253D01*
G01X25675271Y1340271D01*
G01X25675271Y1351701D01*
G01X25669429Y1368973D01*
G01X25657999Y1380403D01*
G01X25646569Y1385991D01*
G01X25629551Y1385991D01*
G01X25740295Y1426123D02*
G01X25740295Y1328841D01*
G01X25745883Y1311823D01*
G01X25757313Y1305981D01*
G01X25768743Y1305981D01*
G01X25723023Y1385991D02*
G01X25763155Y1385991D01*
G01X25833767Y1426123D02*
G01X25833767Y1328841D01*
G01X25839355Y1311823D01*
G01X25850785Y1305981D01*
G01X25862215Y1305981D01*
G01X25816495Y1385991D02*
G01X25856627Y1385991D01*
G01X25938669Y1385991D02*
G01X25927239Y1380403D01*
G01X25915809Y1368973D01*
G01X25909967Y1351701D01*
G01X25909967Y1340271D01*
G01X25915809Y1323253D01*
G01X25927239Y1311823D01*
G01X25938669Y1305981D01*
G01X25955687Y1305981D01*
G01X25967117Y1311823D01*
G01X25978547Y1323253D01*
G01X25984389Y1340271D01*
G01X25984389Y1351701D01*
G01X25978547Y1368973D01*
G01X25967117Y1380403D01*
G01X25955687Y1385991D01*
G01X25938669Y1385991D01*
G01X26032141Y1385991D02*
G01X26032141Y1305981D01*
G01X26032141Y1363131D02*
G01X26049413Y1380403D01*
G01X26060843Y1385991D01*
G01X26077861Y1385991D01*
G01X26089291Y1380403D01*
G01X26095133Y1363131D01*
G01X26095133Y1305981D01*
G01X26095133Y1363131D02*
G01X26112151Y1380403D01*
G01X26123581Y1385991D01*
G01X26140853Y1385991D01*
G01X26152283Y1380403D01*
G01X26157871Y1363131D01*
G01X26157871Y1305981D01*
G01X26333639Y1426123D02*
G01X26333639Y1305981D01*
G01X26333639Y1305981D02*
G01X26402219Y1305981D01*
G01X26518551Y1385991D02*
G01X26518551Y1305981D01*
G01X26518551Y1368973D02*
G01X26507121Y1380403D01*
G01X26495691Y1385991D01*
G01X26478673Y1385991D01*
G01X26467243Y1380403D01*
G01X26455813Y1368973D01*
G01X26449971Y1351701D01*
G01X26449971Y1340271D01*
G01X26455813Y1323253D01*
G01X26467243Y1311823D01*
G01X26478673Y1305981D01*
G01X26495691Y1305981D01*
G01X26507121Y1311823D01*
G01X26518551Y1323253D01*
G01X26572145Y1385991D02*
G01X26606435Y1305981D01*
G01X26640725Y1385991D02*
G01X26606435Y1305981D01*
G01X26595005Y1283121D01*
G01X26583575Y1271691D01*
G01X26572145Y1266103D01*
G01X26566303Y1266103D01*
G01X26688477Y1351701D02*
G01X26757057Y1351701D01*
G01X26757057Y1363131D01*
G01X26751469Y1374561D01*
G01X26745627Y1380403D01*
G01X26734197Y1385991D01*
G01X26717179Y1385991D01*
G01X26705749Y1380403D01*
G01X26694319Y1368973D01*
G01X26688477Y1351701D01*
G01X26688477Y1340271D01*
G01X26694319Y1323253D01*
G01X26705749Y1311823D01*
G01X26717179Y1305981D01*
G01X26734197Y1305981D01*
G01X26745627Y1311823D01*
G01X26757057Y1323253D01*
G01X26804809Y1385991D02*
G01X26804809Y1305981D01*
G01X26804809Y1351701D02*
G01X26810651Y1368973D01*
G01X26822081Y1380403D01*
G01X26833511Y1385991D01*
G01X26850529Y1385991D01*
G01X12480116Y816850D02*
G01X12480116Y822692D01*
G01X12485704Y834122D01*
G01X12491546Y839710D01*
G01X12502976Y845552D01*
G01X12525836Y845552D01*
G01X12537266Y839710D01*
G01X12542854Y834122D01*
G01X12548696Y822692D01*
G01X12548696Y811262D01*
G01X12542854Y799832D01*
G01X12531424Y782560D01*
G01X12474274Y725410D01*
G01X12554284Y725410D01*
G01X13899867Y845552D02*
G01X13962859Y845552D01*
G01X13928569Y799832D01*
G01X13945587Y799832D01*
G01X13957017Y793990D01*
G01X13962859Y788402D01*
G01X13968447Y771130D01*
G01X13968447Y759700D01*
G01X13962859Y742682D01*
G01X13951429Y731252D01*
G01X13934157Y725410D01*
G01X13917139Y725410D01*
G01X13899867Y731252D01*
G01X13894279Y736840D01*
G01X13888437Y748270D01*
G01X14084779Y845552D02*
G01X14027629Y845552D01*
G01X14022041Y793990D01*
G01X14027629Y799832D01*
G01X14044901Y805420D01*
G01X14061919Y805420D01*
G01X14079191Y799832D01*
G01X14090621Y788402D01*
G01X14096209Y771130D01*
G01X14096209Y759700D01*
G01X14090621Y742682D01*
G01X14079191Y731252D01*
G01X14061919Y725410D01*
G01X14044901Y725410D01*
G01X14027629Y731252D01*
G01X14022041Y736840D01*
G01X14016199Y748270D01*
G01X14149803Y754112D02*
G01X14143961Y748270D01*
G01X14149803Y742682D01*
G01X14155391Y748270D01*
G01X14149803Y754112D01*
G01X14260293Y845552D02*
G01X14203143Y765542D01*
G01X14288995Y765542D01*
G01X14260293Y845552D02*
G01X14260293Y725410D01*
G01X14336747Y805420D02*
G01X14399739Y725410D01*
G01X14399739Y805420D02*
G01X14336747Y725410D01*
G01X14521913Y805420D02*
G01X14516071Y788402D01*
G01X14504641Y776972D01*
G01X14487623Y771130D01*
G01X14481781Y771130D01*
G01X14464763Y776972D01*
G01X14453333Y788402D01*
G01X14447491Y805420D01*
G01X14447491Y811262D01*
G01X14453333Y828280D01*
G01X14464763Y839710D01*
G01X14481781Y845552D01*
G01X14487623Y845552D01*
G01X14504641Y839710D01*
G01X14516071Y828280D01*
G01X14521913Y805420D01*
G01X14521913Y776972D01*
G01X14516071Y748270D01*
G01X14504641Y731252D01*
G01X14487623Y725410D01*
G01X14476193Y725410D01*
G01X14458921Y731252D01*
G01X14453333Y742682D01*
G01X14598367Y845552D02*
G01X14581095Y839710D01*
G01X14575507Y828280D01*
G01X14575507Y816850D01*
G01X14581095Y805420D01*
G01X14592525Y799832D01*
G01X14615385Y793990D01*
G01X14632657Y788402D01*
G01X14644087Y776972D01*
G01X14649675Y765542D01*
G01X14649675Y748270D01*
G01X14644087Y736840D01*
G01X14638245Y731252D01*
G01X14621227Y725410D01*
G01X14598367Y725410D01*
G01X14581095Y731252D01*
G01X14575507Y736840D01*
G01X14569665Y748270D01*
G01X14569665Y765542D01*
G01X14575507Y776972D01*
G01X14586937Y788402D01*
G01X14603955Y793990D01*
G01X14626815Y799832D01*
G01X14638245Y805420D01*
G01X14644087Y816850D01*
G01X14644087Y828280D01*
G01X14638245Y839710D01*
G01X14621227Y845552D01*
G01X14598367Y845552D01*
G01X14703269Y754112D02*
G01X14697427Y748270D01*
G01X14703269Y742682D01*
G01X14708857Y748270D01*
G01X14703269Y754112D01*
G01X14813759Y845552D02*
G01X14756609Y765542D01*
G01X14842461Y765542D01*
G01X14813759Y845552D02*
G01X14813759Y725410D01*
G01X14890213Y805420D02*
G01X14890213Y725410D01*
G01X14890213Y782560D02*
G01X14907485Y799832D01*
G01X14918915Y805420D01*
G01X14935933Y805420D01*
G01X14947363Y799832D01*
G01X14953205Y782560D01*
G01X14953205Y725410D01*
G01X14953205Y782560D02*
G01X14970223Y799832D01*
G01X14981653Y805420D01*
G01X14998925Y805420D01*
G01X15010355Y799832D01*
G01X15015943Y782560D01*
G01X15015943Y725410D01*
G01X15063695Y845552D02*
G01X15069537Y839710D01*
G01X15075125Y845552D01*
G01X15069537Y851140D01*
G01X15063695Y845552D01*
G01X15069537Y805420D02*
G01X15069537Y725410D01*
G01X15122877Y845552D02*
G01X15122877Y725410D01*
G01X15210761Y868412D02*
G01X15199331Y856982D01*
G01X15187901Y839710D01*
G01X15176471Y816850D01*
G01X15170629Y788402D01*
G01X15170629Y765542D01*
G01X15176471Y736840D01*
G01X15187901Y713980D01*
G01X15199331Y696962D01*
G01X15210761Y685532D01*
G01X15292803Y845552D02*
G01X15275785Y839710D01*
G01X15264355Y822692D01*
G01X15258513Y793990D01*
G01X15258513Y776972D01*
G01X15264355Y748270D01*
G01X15275785Y731252D01*
G01X15292803Y725410D01*
G01X15304233Y725410D01*
G01X15321505Y731252D01*
G01X15332935Y748270D01*
G01X15338523Y776972D01*
G01X15338523Y793990D01*
G01X15332935Y822692D01*
G01X15321505Y839710D01*
G01X15304233Y845552D01*
G01X15292803Y845552D01*
G01X15392117Y754112D02*
G01X15386275Y748270D01*
G01X15392117Y742682D01*
G01X15397705Y748270D01*
G01X15392117Y754112D01*
G01X15519879Y805420D02*
G01X15514037Y788402D01*
G01X15502607Y776972D01*
G01X15485589Y771130D01*
G01X15479747Y771130D01*
G01X15462729Y776972D01*
G01X15451299Y788402D01*
G01X15445457Y805420D01*
G01X15445457Y811262D01*
G01X15451299Y828280D01*
G01X15462729Y839710D01*
G01X15479747Y845552D01*
G01X15485589Y845552D01*
G01X15502607Y839710D01*
G01X15514037Y828280D01*
G01X15519879Y805420D01*
G01X15519879Y776972D01*
G01X15514037Y748270D01*
G01X15502607Y731252D01*
G01X15485589Y725410D01*
G01X15474159Y725410D01*
G01X15456887Y731252D01*
G01X15451299Y742682D01*
G01X15601921Y845552D02*
G01X15584903Y839710D01*
G01X15573473Y822692D01*
G01X15567631Y793990D01*
G01X15567631Y776972D01*
G01X15573473Y748270D01*
G01X15584903Y731252D01*
G01X15601921Y725410D01*
G01X15613351Y725410D01*
G01X15630623Y731252D01*
G01X15642053Y748270D01*
G01X15647641Y776972D01*
G01X15647641Y793990D01*
G01X15642053Y822692D01*
G01X15630623Y839710D01*
G01X15613351Y845552D01*
G01X15601921Y845552D01*
G01X15729683Y845552D02*
G01X15712665Y839710D01*
G01X15701235Y822692D01*
G01X15695393Y793990D01*
G01X15695393Y776972D01*
G01X15701235Y748270D01*
G01X15712665Y731252D01*
G01X15729683Y725410D01*
G01X15741113Y725410D01*
G01X15758385Y731252D01*
G01X15769815Y748270D01*
G01X15775403Y776972D01*
G01X15775403Y793990D01*
G01X15769815Y822692D01*
G01X15758385Y839710D01*
G01X15741113Y845552D01*
G01X15729683Y845552D01*
G01X15823155Y805420D02*
G01X15886147Y725410D01*
G01X15886147Y805420D02*
G01X15823155Y725410D01*
G01X15939741Y816850D02*
G01X15939741Y822692D01*
G01X15945329Y834122D01*
G01X15951171Y839710D01*
G01X15962601Y845552D01*
G01X15985461Y845552D01*
G01X15996891Y839710D01*
G01X16002479Y834122D01*
G01X16008321Y822692D01*
G01X16008321Y811262D01*
G01X16002479Y799832D01*
G01X15991049Y782560D01*
G01X15933899Y725410D01*
G01X16013909Y725410D01*
G01X16067503Y754112D02*
G01X16061661Y748270D01*
G01X16067503Y742682D01*
G01X16073091Y748270D01*
G01X16067503Y754112D01*
G01X16189423Y845552D02*
G01X16132273Y845552D01*
G01X16126685Y793990D01*
G01X16132273Y799832D01*
G01X16149545Y805420D01*
G01X16166563Y805420D01*
G01X16183835Y799832D01*
G01X16195265Y788402D01*
G01X16200853Y771130D01*
G01X16200853Y759700D01*
G01X16195265Y742682D01*
G01X16183835Y731252D01*
G01X16166563Y725410D01*
G01X16149545Y725410D01*
G01X16132273Y731252D01*
G01X16126685Y736840D01*
G01X16120843Y748270D01*
G01X16282895Y845552D02*
G01X16265877Y839710D01*
G01X16254447Y822692D01*
G01X16248605Y793990D01*
G01X16248605Y776972D01*
G01X16254447Y748270D01*
G01X16265877Y731252D01*
G01X16282895Y725410D01*
G01X16294325Y725410D01*
G01X16311597Y731252D01*
G01X16323027Y748270D01*
G01X16328615Y776972D01*
G01X16328615Y793990D01*
G01X16323027Y822692D01*
G01X16311597Y839710D01*
G01X16294325Y845552D01*
G01X16282895Y845552D01*
G01X16410657Y845552D02*
G01X16393639Y839710D01*
G01X16382209Y822692D01*
G01X16376367Y793990D01*
G01X16376367Y776972D01*
G01X16382209Y748270D01*
G01X16393639Y731252D01*
G01X16410657Y725410D01*
G01X16422087Y725410D01*
G01X16439359Y731252D01*
G01X16450789Y748270D01*
G01X16456377Y776972D01*
G01X16456377Y793990D01*
G01X16450789Y822692D01*
G01X16439359Y839710D01*
G01X16422087Y845552D01*
G01X16410657Y845552D01*
G01X16504129Y805420D02*
G01X16504129Y725410D01*
G01X16504129Y782560D02*
G01X16521401Y799832D01*
G01X16532831Y805420D01*
G01X16549849Y805420D01*
G01X16561279Y799832D01*
G01X16567121Y782560D01*
G01X16567121Y725410D01*
G01X16567121Y782560D02*
G01X16584139Y799832D01*
G01X16595569Y805420D01*
G01X16612841Y805420D01*
G01X16624271Y799832D01*
G01X16629859Y782560D01*
G01X16629859Y725410D01*
G01X16677611Y805420D02*
G01X16677611Y725410D01*
G01X16677611Y782560D02*
G01X16694883Y799832D01*
G01X16706313Y805420D01*
G01X16723331Y805420D01*
G01X16734761Y799832D01*
G01X16740603Y782560D01*
G01X16740603Y725410D01*
G01X16740603Y782560D02*
G01X16757621Y799832D01*
G01X16769051Y805420D01*
G01X16786323Y805420D01*
G01X16797753Y799832D01*
G01X16803341Y782560D01*
G01X16803341Y725410D01*
G01X16851093Y868412D02*
G01X16862523Y856982D01*
G01X16873953Y839710D01*
G01X16885383Y816850D01*
G01X16891225Y788402D01*
G01X16891225Y765542D01*
G01X16885383Y736840D01*
G01X16873953Y713980D01*
G01X16862523Y696962D01*
G01X16851093Y685532D01*
G01X17782402Y845552D02*
G01X17782402Y725410D01*
G01X17782402Y845552D02*
G01X17833964Y845552D01*
G01X17850982Y839710D01*
G01X17856824Y834122D01*
G01X17862412Y822692D01*
G01X17862412Y805420D01*
G01X17856824Y793990D01*
G01X17850982Y788402D01*
G01X17833964Y782560D01*
G01X17782402Y782560D01*
G01X17950296Y845552D02*
G01X17950296Y725410D01*
G01X17910164Y845552D02*
G01X17990174Y845552D01*
G01X18037926Y845552D02*
G01X18037926Y725410D01*
G01X18117936Y845552D02*
G01X18117936Y725410D01*
G01X18037926Y788402D02*
G01X18117936Y788402D01*
G01X19323820Y828280D02*
G01X19312390Y839710D01*
G01X19295372Y845552D01*
G01X19272512Y845552D01*
G01X19255240Y839710D01*
G01X19243810Y828280D01*
G01X19243810Y816850D01*
G01X19249652Y805420D01*
G01X19255240Y799832D01*
G01X19266670Y793990D01*
G01X19300960Y782560D01*
G01X19312390Y776972D01*
G01X19318232Y771130D01*
G01X19323820Y759700D01*
G01X19323820Y742682D01*
G01X19312390Y731252D01*
G01X19295372Y725410D01*
G01X19272512Y725410D01*
G01X19255240Y731252D01*
G01X19243810Y742682D01*
G01X19371572Y845552D02*
G01X19371572Y725410D01*
G01X19448026Y805420D02*
G01X19436596Y799832D01*
G01X19425166Y788402D01*
G01X19419324Y771130D01*
G01X19419324Y759700D01*
G01X19425166Y742682D01*
G01X19436596Y731252D01*
G01X19448026Y725410D01*
G01X19465044Y725410D01*
G01X19476474Y731252D01*
G01X19487904Y742682D01*
G01X19493746Y759700D01*
G01X19493746Y771130D01*
G01X19487904Y788402D01*
G01X19476474Y799832D01*
G01X19465044Y805420D01*
G01X19448026Y805420D01*
G01X19558770Y845552D02*
G01X19558770Y748270D01*
G01X19564358Y731252D01*
G01X19575788Y725410D01*
G01X19587218Y725410D01*
G01X19541498Y805420D02*
G01X19581630Y805420D01*
G01X20674991Y845552D02*
G01X20674991Y725410D01*
G01X20674991Y845552D02*
G01X20726553Y845552D01*
G01X20743571Y839710D01*
G01X20749413Y834122D01*
G01X20755001Y822692D01*
G01X20755001Y805420D01*
G01X20749413Y793990D01*
G01X20743571Y788402D01*
G01X20726553Y782560D01*
G01X20674991Y782560D01*
G01X20871333Y805420D02*
G01X20871333Y725410D01*
G01X20871333Y788402D02*
G01X20859903Y799832D01*
G01X20848473Y805420D01*
G01X20831455Y805420D01*
G01X20820025Y799832D01*
G01X20808595Y788402D01*
G01X20802753Y771130D01*
G01X20802753Y759700D01*
G01X20808595Y742682D01*
G01X20820025Y731252D01*
G01X20831455Y725410D01*
G01X20848473Y725410D01*
G01X20859903Y731252D01*
G01X20871333Y742682D01*
G01X20987665Y845552D02*
G01X20987665Y725410D01*
G01X20987665Y788402D02*
G01X20976235Y799832D01*
G01X20964805Y805420D01*
G01X20947787Y805420D01*
G01X20936357Y799832D01*
G01X20924927Y788402D01*
G01X20919085Y771130D01*
G01X20919085Y759700D01*
G01X20924927Y742682D01*
G01X20936357Y731252D01*
G01X20947787Y725410D01*
G01X20964805Y725410D01*
G01X20976235Y731252D01*
G01X20987665Y742682D01*
G01X22378460Y845552D02*
G01X22367030Y839710D01*
G01X22355600Y828280D01*
G01X22350012Y816850D01*
G01X22344170Y799832D01*
G01X22344170Y771130D01*
G01X22350012Y754112D01*
G01X22355600Y742682D01*
G01X22367030Y731252D01*
G01X22378460Y725410D01*
G01X22401320Y725410D01*
G01X22412750Y731252D01*
G01X22424180Y742682D01*
G01X22430022Y754112D01*
G01X22435610Y771130D01*
G01X22435610Y799832D01*
G01X22430022Y816850D01*
G01X22424180Y828280D01*
G01X22412750Y839710D01*
G01X22401320Y845552D01*
G01X22378460Y845552D01*
G01X22483362Y805420D02*
G01X22517652Y725410D01*
G01X22551942Y805420D02*
G01X22517652Y725410D01*
G01X22668274Y805420D02*
G01X22668274Y725410D01*
G01X22668274Y788402D02*
G01X22656844Y799832D01*
G01X22645414Y805420D01*
G01X22628396Y805420D01*
G01X22616966Y799832D01*
G01X22605536Y788402D01*
G01X22599694Y771130D01*
G01X22599694Y759700D01*
G01X22605536Y742682D01*
G01X22616966Y731252D01*
G01X22628396Y725410D01*
G01X22645414Y725410D01*
G01X22656844Y731252D01*
G01X22668274Y742682D01*
G01X22716026Y845552D02*
G01X22716026Y725410D01*
G01X24303671Y845552D02*
G01X24303671Y725410D01*
G01X24263539Y845552D02*
G01X24343549Y845552D01*
G01X24420003Y805420D02*
G01X24408573Y799832D01*
G01X24397143Y788402D01*
G01X24391301Y771130D01*
G01X24391301Y759700D01*
G01X24397143Y742682D01*
G01X24408573Y731252D01*
G01X24420003Y725410D01*
G01X24437021Y725410D01*
G01X24448451Y731252D01*
G01X24459881Y742682D01*
G01X24465723Y759700D01*
G01X24465723Y771130D01*
G01X24459881Y788402D01*
G01X24448451Y799832D01*
G01X24437021Y805420D01*
G01X24420003Y805420D01*
G01X24513475Y805420D02*
G01X24513475Y685532D01*
G01X24513475Y788402D02*
G01X24524905Y799832D01*
G01X24536335Y805420D01*
G01X24553607Y805420D01*
G01X24565037Y799832D01*
G01X24576467Y788402D01*
G01X24582055Y771130D01*
G01X24582055Y759700D01*
G01X24576467Y742682D01*
G01X24565037Y731252D01*
G01X24553607Y725410D01*
G01X24536335Y725410D01*
G01X24524905Y731252D01*
G01X24513475Y742682D01*
G01X24757823Y845552D02*
G01X24757823Y725410D01*
G01X24757823Y725410D02*
G01X24826403Y725410D01*
G01X24942735Y805420D02*
G01X24942735Y725410D01*
G01X24942735Y788402D02*
G01X24931305Y799832D01*
G01X24919875Y805420D01*
G01X24902857Y805420D01*
G01X24891427Y799832D01*
G01X24879997Y788402D01*
G01X24874155Y771130D01*
G01X24874155Y759700D01*
G01X24879997Y742682D01*
G01X24891427Y731252D01*
G01X24902857Y725410D01*
G01X24919875Y725410D01*
G01X24931305Y731252D01*
G01X24942735Y742682D01*
G01X24996329Y805420D02*
G01X25030619Y725410D01*
G01X25064909Y805420D02*
G01X25030619Y725410D01*
G01X25019189Y702550D01*
G01X25007759Y691120D01*
G01X24996329Y685532D01*
G01X24990487Y685532D01*
G01X25112661Y771130D02*
G01X25181241Y771130D01*
G01X25181241Y782560D01*
G01X25175653Y793990D01*
G01X25169811Y799832D01*
G01X25158381Y805420D01*
G01X25141363Y805420D01*
G01X25129933Y799832D01*
G01X25118503Y788402D01*
G01X25112661Y771130D01*
G01X25112661Y759700D01*
G01X25118503Y742682D01*
G01X25129933Y731252D01*
G01X25141363Y725410D01*
G01X25158381Y725410D01*
G01X25169811Y731252D01*
G01X25181241Y742682D01*
G01X25228993Y805420D02*
G01X25228993Y725410D01*
G01X25228993Y771130D02*
G01X25234835Y788402D01*
G01X25246265Y799832D01*
G01X25257695Y805420D01*
G01X25274713Y805420D01*
G01X25322465Y776972D02*
G01X25425335Y776972D01*
G01X25473087Y845552D02*
G01X25473087Y725410D01*
G01X25473087Y845552D02*
G01X25524649Y845552D01*
G01X25541667Y839710D01*
G01X25547509Y834122D01*
G01X25553097Y822692D01*
G01X25553097Y811262D01*
G01X25547509Y799832D01*
G01X25541667Y793990D01*
G01X25524649Y788402D01*
G01X25473087Y788402D02*
G01X25524649Y788402D01*
G01X25541667Y782560D01*
G01X25547509Y776972D01*
G01X25553097Y765542D01*
G01X25553097Y748270D01*
G01X25547509Y736840D01*
G01X25541667Y731252D01*
G01X25524649Y725410D01*
G01X25473087Y725410D01*
G01X25629551Y805420D02*
G01X25618121Y799832D01*
G01X25606691Y788402D01*
G01X25600849Y771130D01*
G01X25600849Y759700D01*
G01X25606691Y742682D01*
G01X25618121Y731252D01*
G01X25629551Y725410D01*
G01X25646569Y725410D01*
G01X25657999Y731252D01*
G01X25669429Y742682D01*
G01X25675271Y759700D01*
G01X25675271Y771130D01*
G01X25669429Y788402D01*
G01X25657999Y799832D01*
G01X25646569Y805420D01*
G01X25629551Y805420D01*
G01X25740295Y845552D02*
G01X25740295Y748270D01*
G01X25745883Y731252D01*
G01X25757313Y725410D01*
G01X25768743Y725410D01*
G01X25723023Y805420D02*
G01X25763155Y805420D01*
G01X25833767Y845552D02*
G01X25833767Y748270D01*
G01X25839355Y731252D01*
G01X25850785Y725410D01*
G01X25862215Y725410D01*
G01X25816495Y805420D02*
G01X25856627Y805420D01*
G01X25938669Y805420D02*
G01X25927239Y799832D01*
G01X25915809Y788402D01*
G01X25909967Y771130D01*
G01X25909967Y759700D01*
G01X25915809Y742682D01*
G01X25927239Y731252D01*
G01X25938669Y725410D01*
G01X25955687Y725410D01*
G01X25967117Y731252D01*
G01X25978547Y742682D01*
G01X25984389Y759700D01*
G01X25984389Y771130D01*
G01X25978547Y788402D01*
G01X25967117Y799832D01*
G01X25955687Y805420D01*
G01X25938669Y805420D01*
G01X26032141Y805420D02*
G01X26032141Y725410D01*
G01X26032141Y782560D02*
G01X26049413Y799832D01*
G01X26060843Y805420D01*
G01X26077861Y805420D01*
G01X26089291Y799832D01*
G01X26095133Y782560D01*
G01X26095133Y725410D01*
G01X26095133Y782560D02*
G01X26112151Y799832D01*
G01X26123581Y805420D01*
G01X26140853Y805420D01*
G01X26152283Y799832D01*
G01X26157871Y782560D01*
G01X26157871Y725410D01*
G01X26333639Y845552D02*
G01X26333639Y725410D01*
G01X26333639Y725410D02*
G01X26402219Y725410D01*
G01X26518551Y805420D02*
G01X26518551Y725410D01*
G01X26518551Y788402D02*
G01X26507121Y799832D01*
G01X26495691Y805420D01*
G01X26478673Y805420D01*
G01X26467243Y799832D01*
G01X26455813Y788402D01*
G01X26449971Y771130D01*
G01X26449971Y759700D01*
G01X26455813Y742682D01*
G01X26467243Y731252D01*
G01X26478673Y725410D01*
G01X26495691Y725410D01*
G01X26507121Y731252D01*
G01X26518551Y742682D01*
G01X26572145Y805420D02*
G01X26606435Y725410D01*
G01X26640725Y805420D02*
G01X26606435Y725410D01*
G01X26595005Y702550D01*
G01X26583575Y691120D01*
G01X26572145Y685532D01*
G01X26566303Y685532D01*
G01X26688477Y771130D02*
G01X26757057Y771130D01*
G01X26757057Y782560D01*
G01X26751469Y793990D01*
G01X26745627Y799832D01*
G01X26734197Y805420D01*
G01X26717179Y805420D01*
G01X26705749Y799832D01*
G01X26694319Y788402D01*
G01X26688477Y771130D01*
G01X26688477Y759700D01*
G01X26694319Y742682D01*
G01X26705749Y731252D01*
G01X26717179Y725410D01*
G01X26734197Y725410D01*
G01X26745627Y731252D01*
G01X26757057Y742682D01*
G01X26804809Y805420D02*
G01X26804809Y725410D01*
G01X26804809Y771130D02*
G01X26810651Y788402D01*
G01X26822081Y799832D01*
G01X26833511Y805420D01*
G01X26850529Y805420D01*
G01X12480116Y236278D02*
G01X12480116Y242120D01*
G01X12485704Y253550D01*
G01X12491546Y259138D01*
G01X12502976Y264980D01*
G01X12525836Y264980D01*
G01X12537266Y259138D01*
G01X12542854Y253550D01*
G01X12548696Y242120D01*
G01X12548696Y230690D01*
G01X12542854Y219260D01*
G01X12531424Y201988D01*
G01X12474274Y144838D01*
G01X12554284Y144838D01*
G01X13957017Y264980D02*
G01X13899867Y264980D01*
G01X13894279Y213418D01*
G01X13899867Y219260D01*
G01X13917139Y224848D01*
G01X13934157Y224848D01*
G01X13951429Y219260D01*
G01X13962859Y207830D01*
G01X13968447Y190558D01*
G01X13968447Y179128D01*
G01X13962859Y162110D01*
G01X13951429Y150680D01*
G01X13934157Y144838D01*
G01X13917139Y144838D01*
G01X13899867Y150680D01*
G01X13894279Y156268D01*
G01X13888437Y167698D01*
G01X14016199Y242120D02*
G01X14027629Y247708D01*
G01X14044901Y264980D01*
G01X14044901Y144838D01*
G01X14098495Y173540D02*
G01X14092653Y167698D01*
G01X14098495Y162110D01*
G01X14104083Y167698D01*
G01X14098495Y173540D01*
G01X14157677Y236278D02*
G01X14157677Y242120D01*
G01X14163265Y253550D01*
G01X14169107Y259138D01*
G01X14180537Y264980D01*
G01X14203397Y264980D01*
G01X14214827Y259138D01*
G01X14220415Y253550D01*
G01X14226257Y242120D01*
G01X14226257Y230690D01*
G01X14220415Y219260D01*
G01X14208985Y201988D01*
G01X14151835Y144838D01*
G01X14231845Y144838D01*
G01X14279597Y224848D02*
G01X14279597Y144838D01*
G01X14279597Y201988D02*
G01X14296869Y219260D01*
G01X14308299Y224848D01*
G01X14325317Y224848D01*
G01X14336747Y219260D01*
G01X14342589Y201988D01*
G01X14342589Y144838D01*
G01X14342589Y201988D02*
G01X14359607Y219260D01*
G01X14371037Y224848D01*
G01X14388309Y224848D01*
G01X14399739Y219260D01*
G01X14405327Y201988D01*
G01X14405327Y144838D01*
G01X14453079Y264980D02*
G01X14458921Y259138D01*
G01X14464509Y264980D01*
G01X14458921Y270568D01*
G01X14453079Y264980D01*
G01X14458921Y224848D02*
G01X14458921Y144838D01*
G01X14512261Y264980D02*
G01X14512261Y144838D01*
G01X14600145Y287840D02*
G01X14588715Y276410D01*
G01X14577285Y259138D01*
G01X14565855Y236278D01*
G01X14560013Y207830D01*
G01X14560013Y184970D01*
G01X14565855Y156268D01*
G01X14577285Y133408D01*
G01X14588715Y116390D01*
G01X14600145Y104960D01*
G01X14647897Y242120D02*
G01X14659327Y247708D01*
G01X14676599Y264980D01*
G01X14676599Y144838D01*
G01X14730193Y173540D02*
G01X14724351Y167698D01*
G01X14730193Y162110D01*
G01X14735781Y167698D01*
G01X14730193Y173540D01*
G01X14794963Y264980D02*
G01X14857955Y264980D01*
G01X14823665Y219260D01*
G01X14840683Y219260D01*
G01X14852113Y213418D01*
G01X14857955Y207830D01*
G01X14863543Y190558D01*
G01X14863543Y179128D01*
G01X14857955Y162110D01*
G01X14846525Y150680D01*
G01X14829253Y144838D01*
G01X14812235Y144838D01*
G01X14794963Y150680D01*
G01X14789375Y156268D01*
G01X14783533Y167698D01*
G01X14945585Y264980D02*
G01X14928567Y259138D01*
G01X14917137Y242120D01*
G01X14911295Y213418D01*
G01X14911295Y196400D01*
G01X14917137Y167698D01*
G01X14928567Y150680D01*
G01X14945585Y144838D01*
G01X14957015Y144838D01*
G01X14974287Y150680D01*
G01X14985717Y167698D01*
G01X14991305Y196400D01*
G01X14991305Y213418D01*
G01X14985717Y242120D01*
G01X14974287Y259138D01*
G01X14957015Y264980D01*
G01X14945585Y264980D01*
G01X15073347Y264980D02*
G01X15056329Y259138D01*
G01X15044899Y242120D01*
G01X15039057Y213418D01*
G01X15039057Y196400D01*
G01X15044899Y167698D01*
G01X15056329Y150680D01*
G01X15073347Y144838D01*
G01X15084777Y144838D01*
G01X15102049Y150680D01*
G01X15113479Y167698D01*
G01X15119067Y196400D01*
G01X15119067Y213418D01*
G01X15113479Y242120D01*
G01X15102049Y259138D01*
G01X15084777Y264980D01*
G01X15073347Y264980D01*
G01X15166819Y224848D02*
G01X15166819Y144838D01*
G01X15166819Y201988D02*
G01X15184091Y219260D01*
G01X15195521Y224848D01*
G01X15212539Y224848D01*
G01X15223969Y219260D01*
G01X15229811Y201988D01*
G01X15229811Y144838D01*
G01X15229811Y201988D02*
G01X15246829Y219260D01*
G01X15258259Y224848D01*
G01X15275531Y224848D01*
G01X15286961Y219260D01*
G01X15292549Y201988D01*
G01X15292549Y144838D01*
G01X15340301Y224848D02*
G01X15340301Y144838D01*
G01X15340301Y201988D02*
G01X15357573Y219260D01*
G01X15369003Y224848D01*
G01X15386021Y224848D01*
G01X15397451Y219260D01*
G01X15403293Y201988D01*
G01X15403293Y144838D01*
G01X15403293Y201988D02*
G01X15420311Y219260D01*
G01X15431741Y224848D01*
G01X15449013Y224848D01*
G01X15460443Y219260D01*
G01X15466031Y201988D01*
G01X15466031Y144838D01*
G01X15513783Y287840D02*
G01X15525213Y276410D01*
G01X15536643Y259138D01*
G01X15548073Y236278D01*
G01X15553915Y207830D01*
G01X15553915Y184970D01*
G01X15548073Y156268D01*
G01X15536643Y133408D01*
G01X15525213Y116390D01*
G01X15513783Y104960D01*
G01X17782402Y264980D02*
G01X17782402Y144838D01*
G01X17782402Y264980D02*
G01X17862412Y144838D01*
G01X17862412Y264980D02*
G01X17862412Y144838D01*
G01X17910164Y264980D02*
G01X17910164Y144838D01*
G01X17910164Y264980D02*
G01X17961726Y264980D01*
G01X17978744Y259138D01*
G01X17984586Y253550D01*
G01X17990174Y242120D01*
G01X17990174Y224848D01*
G01X17984586Y213418D01*
G01X17978744Y207830D01*
G01X17961726Y201988D01*
G01X17910164Y201988D01*
G01X18078058Y264980D02*
G01X18078058Y144838D01*
G01X18037926Y264980D02*
G01X18117936Y264980D01*
G01X18165688Y264980D02*
G01X18165688Y144838D01*
G01X18245698Y264980D02*
G01X18245698Y144838D01*
G01X18165688Y207830D02*
G01X18245698Y207830D01*
G01X19243810Y264980D02*
G01X19243810Y144838D01*
G01X19243810Y264980D02*
G01X19295372Y264980D01*
G01X19312390Y259138D01*
G01X19318232Y253550D01*
G01X19323820Y242120D01*
G01X19323820Y230690D01*
G01X19318232Y219260D01*
G01X19312390Y213418D01*
G01X19295372Y207830D01*
G01X19243810Y207830D01*
G01X19283942Y207830D02*
G01X19323820Y144838D01*
G01X19400274Y224848D02*
G01X19388844Y219260D01*
G01X19377414Y207830D01*
G01X19371572Y190558D01*
G01X19371572Y179128D01*
G01X19377414Y162110D01*
G01X19388844Y150680D01*
G01X19400274Y144838D01*
G01X19417292Y144838D01*
G01X19428722Y150680D01*
G01X19440152Y162110D01*
G01X19445994Y179128D01*
G01X19445994Y190558D01*
G01X19440152Y207830D01*
G01X19428722Y219260D01*
G01X19417292Y224848D01*
G01X19400274Y224848D01*
G01X19493746Y224848D02*
G01X19493746Y167698D01*
G01X19499588Y150680D01*
G01X19511018Y144838D01*
G01X19528036Y144838D01*
G01X19539466Y150680D01*
G01X19556738Y167698D01*
G01X19556738Y224848D02*
G01X19556738Y144838D01*
G01X19604490Y224848D02*
G01X19604490Y144838D01*
G01X19604490Y201988D02*
G01X19621762Y219260D01*
G01X19633192Y224848D01*
G01X19650210Y224848D01*
G01X19661640Y219260D01*
G01X19667482Y201988D01*
G01X19667482Y144838D01*
G01X19783814Y264980D02*
G01X19783814Y144838D01*
G01X19783814Y207830D02*
G01X19772384Y219260D01*
G01X19760954Y224848D01*
G01X19743936Y224848D01*
G01X19732506Y219260D01*
G01X19721076Y207830D01*
G01X19715234Y190558D01*
G01X19715234Y179128D01*
G01X19721076Y162110D01*
G01X19732506Y150680D01*
G01X19743936Y144838D01*
G01X19760954Y144838D01*
G01X19772384Y150680D01*
G01X19783814Y162110D01*
G01X20674991Y264980D02*
G01X20720711Y144838D01*
G01X20766431Y264980D02*
G01X20720711Y144838D01*
G01X20814183Y264980D02*
G01X20820025Y259138D01*
G01X20825613Y264980D01*
G01X20820025Y270568D01*
G01X20814183Y264980D01*
G01X20820025Y224848D02*
G01X20820025Y144838D01*
G01X20941945Y224848D02*
G01X20941945Y144838D01*
G01X20941945Y207830D02*
G01X20930515Y219260D01*
G01X20919085Y224848D01*
G01X20902067Y224848D01*
G01X20890637Y219260D01*
G01X20879207Y207830D01*
G01X20873365Y190558D01*
G01X20873365Y179128D01*
G01X20879207Y162110D01*
G01X20890637Y150680D01*
G01X20902067Y144838D01*
G01X20919085Y144838D01*
G01X20930515Y150680D01*
G01X20941945Y162110D01*
G01X24303671Y264980D02*
G01X24303671Y144838D01*
G01X24263539Y264980D02*
G01X24343549Y264980D01*
G01X24420003Y224848D02*
G01X24408573Y219260D01*
G01X24397143Y207830D01*
G01X24391301Y190558D01*
G01X24391301Y179128D01*
G01X24397143Y162110D01*
G01X24408573Y150680D01*
G01X24420003Y144838D01*
G01X24437021Y144838D01*
G01X24448451Y150680D01*
G01X24459881Y162110D01*
G01X24465723Y179128D01*
G01X24465723Y190558D01*
G01X24459881Y207830D01*
G01X24448451Y219260D01*
G01X24437021Y224848D01*
G01X24420003Y224848D01*
G01X24513475Y224848D02*
G01X24513475Y104960D01*
G01X24513475Y207830D02*
G01X24524905Y219260D01*
G01X24536335Y224848D01*
G01X24553607Y224848D01*
G01X24565037Y219260D01*
G01X24576467Y207830D01*
G01X24582055Y190558D01*
G01X24582055Y179128D01*
G01X24576467Y162110D01*
G01X24565037Y150680D01*
G01X24553607Y144838D01*
G01X24536335Y144838D01*
G01X24524905Y150680D01*
G01X24513475Y162110D01*
G01X24757823Y264980D02*
G01X24757823Y144838D01*
G01X24757823Y144838D02*
G01X24826403Y144838D01*
G01X24942735Y224848D02*
G01X24942735Y144838D01*
G01X24942735Y207830D02*
G01X24931305Y219260D01*
G01X24919875Y224848D01*
G01X24902857Y224848D01*
G01X24891427Y219260D01*
G01X24879997Y207830D01*
G01X24874155Y190558D01*
G01X24874155Y179128D01*
G01X24879997Y162110D01*
G01X24891427Y150680D01*
G01X24902857Y144838D01*
G01X24919875Y144838D01*
G01X24931305Y150680D01*
G01X24942735Y162110D01*
G01X24996329Y224848D02*
G01X25030619Y144838D01*
G01X25064909Y224848D02*
G01X25030619Y144838D01*
G01X25019189Y121978D01*
G01X25007759Y110548D01*
G01X24996329Y104960D01*
G01X24990487Y104960D01*
G01X25112661Y190558D02*
G01X25181241Y190558D01*
G01X25181241Y201988D01*
G01X25175653Y213418D01*
G01X25169811Y219260D01*
G01X25158381Y224848D01*
G01X25141363Y224848D01*
G01X25129933Y219260D01*
G01X25118503Y207830D01*
G01X25112661Y190558D01*
G01X25112661Y179128D01*
G01X25118503Y162110D01*
G01X25129933Y150680D01*
G01X25141363Y144838D01*
G01X25158381Y144838D01*
G01X25169811Y150680D01*
G01X25181241Y162110D01*
G01X25228993Y224848D02*
G01X25228993Y144838D01*
G01X25228993Y190558D02*
G01X25234835Y207830D01*
G01X25246265Y219260D01*
G01X25257695Y224848D01*
G01X25274713Y224848D01*
G01X25322465Y196400D02*
G01X25425335Y196400D01*
G01X25473087Y264980D02*
G01X25473087Y144838D01*
G01X25473087Y264980D02*
G01X25524649Y264980D01*
G01X25541667Y259138D01*
G01X25547509Y253550D01*
G01X25553097Y242120D01*
G01X25553097Y230690D01*
G01X25547509Y219260D01*
G01X25541667Y213418D01*
G01X25524649Y207830D01*
G01X25473087Y207830D02*
G01X25524649Y207830D01*
G01X25541667Y201988D01*
G01X25547509Y196400D01*
G01X25553097Y184970D01*
G01X25553097Y167698D01*
G01X25547509Y156268D01*
G01X25541667Y150680D01*
G01X25524649Y144838D01*
G01X25473087Y144838D01*
G01X25629551Y224848D02*
G01X25618121Y219260D01*
G01X25606691Y207830D01*
G01X25600849Y190558D01*
G01X25600849Y179128D01*
G01X25606691Y162110D01*
G01X25618121Y150680D01*
G01X25629551Y144838D01*
G01X25646569Y144838D01*
G01X25657999Y150680D01*
G01X25669429Y162110D01*
G01X25675271Y179128D01*
G01X25675271Y190558D01*
G01X25669429Y207830D01*
G01X25657999Y219260D01*
G01X25646569Y224848D01*
G01X25629551Y224848D01*
G01X25740295Y264980D02*
G01X25740295Y167698D01*
G01X25745883Y150680D01*
G01X25757313Y144838D01*
G01X25768743Y144838D01*
G01X25723023Y224848D02*
G01X25763155Y224848D01*
G01X25833767Y264980D02*
G01X25833767Y167698D01*
G01X25839355Y150680D01*
G01X25850785Y144838D01*
G01X25862215Y144838D01*
G01X25816495Y224848D02*
G01X25856627Y224848D01*
G01X25938669Y224848D02*
G01X25927239Y219260D01*
G01X25915809Y207830D01*
G01X25909967Y190558D01*
G01X25909967Y179128D01*
G01X25915809Y162110D01*
G01X25927239Y150680D01*
G01X25938669Y144838D01*
G01X25955687Y144838D01*
G01X25967117Y150680D01*
G01X25978547Y162110D01*
G01X25984389Y179128D01*
G01X25984389Y190558D01*
G01X25978547Y207830D01*
G01X25967117Y219260D01*
G01X25955687Y224848D01*
G01X25938669Y224848D01*
G01X26032141Y224848D02*
G01X26032141Y144838D01*
G01X26032141Y201988D02*
G01X26049413Y219260D01*
G01X26060843Y224848D01*
G01X26077861Y224848D01*
G01X26089291Y219260D01*
G01X26095133Y201988D01*
G01X26095133Y144838D01*
G01X26095133Y201988D02*
G01X26112151Y219260D01*
G01X26123581Y224848D01*
G01X26140853Y224848D01*
G01X26152283Y219260D01*
G01X26157871Y201988D01*
G01X26157871Y144838D01*
G01X26333639Y264980D02*
G01X26333639Y144838D01*
G01X26333639Y144838D02*
G01X26402219Y144838D01*
G01X26518551Y224848D02*
G01X26518551Y144838D01*
G01X26518551Y207830D02*
G01X26507121Y219260D01*
G01X26495691Y224848D01*
G01X26478673Y224848D01*
G01X26467243Y219260D01*
G01X26455813Y207830D01*
G01X26449971Y190558D01*
G01X26449971Y179128D01*
G01X26455813Y162110D01*
G01X26467243Y150680D01*
G01X26478673Y144838D01*
G01X26495691Y144838D01*
G01X26507121Y150680D01*
G01X26518551Y162110D01*
G01X26572145Y224848D02*
G01X26606435Y144838D01*
G01X26640725Y224848D02*
G01X26606435Y144838D01*
G01X26595005Y121978D01*
G01X26583575Y110548D01*
G01X26572145Y104960D01*
G01X26566303Y104960D01*
G01X26688477Y190558D02*
G01X26757057Y190558D01*
G01X26757057Y201988D01*
G01X26751469Y213418D01*
G01X26745627Y219260D01*
G01X26734197Y224848D01*
G01X26717179Y224848D01*
G01X26705749Y219260D01*
G01X26694319Y207830D01*
G01X26688477Y190558D01*
G01X26688477Y179128D01*
G01X26694319Y162110D01*
G01X26705749Y150680D01*
G01X26717179Y144838D01*
G01X26734197Y144838D01*
G01X26745627Y150680D01*
G01X26757057Y162110D01*
G01X26804809Y224848D02*
G01X26804809Y144838D01*
G01X26804809Y190558D02*
G01X26810651Y207830D01*
G01X26822081Y219260D01*
G01X26833511Y224848D01*
G01X26850529Y224848D01*
G01X12485704Y-315591D02*
G01X12548696Y-315591D01*
G01X12514406Y-361311D01*
G01X12531424Y-361311D01*
G01X12542854Y-367153D01*
G01X12548696Y-372741D01*
G01X12554284Y-390013D01*
G01X12554284Y-401443D01*
G01X12548696Y-418461D01*
G01X12537266Y-429891D01*
G01X12519994Y-435733D01*
G01X12502976Y-435733D01*
G01X12485704Y-429891D01*
G01X12480116Y-424303D01*
G01X12474274Y-412873D01*
G01X12613466Y-315591D02*
G01X12676458Y-315591D01*
G01X12642168Y-361311D01*
G01X12659186Y-361311D01*
G01X12670616Y-367153D01*
G01X12676458Y-372741D01*
G01X12682046Y-390013D01*
G01X12682046Y-401443D01*
G01X12676458Y-418461D01*
G01X12665028Y-429891D01*
G01X12647756Y-435733D01*
G01X12630738Y-435733D01*
G01X12613466Y-429891D01*
G01X12607878Y-424303D01*
G01X12602036Y-412873D01*
G01X13888437Y-338451D02*
G01X13899867Y-332863D01*
G01X13917139Y-315591D01*
G01X13917139Y-435733D01*
G01X13964891Y-338451D02*
G01X13976321Y-332863D01*
G01X13993593Y-315591D01*
G01X13993593Y-435733D01*
G01X14047187Y-407031D02*
G01X14041345Y-412873D01*
G01X14047187Y-418461D01*
G01X14052775Y-412873D01*
G01X14047187Y-407031D01*
G01X14129229Y-315591D02*
G01X14111957Y-321433D01*
G01X14106369Y-332863D01*
G01X14106369Y-344293D01*
G01X14111957Y-355723D01*
G01X14123387Y-361311D01*
G01X14146247Y-367153D01*
G01X14163519Y-372741D01*
G01X14174949Y-384171D01*
G01X14180537Y-395601D01*
G01X14180537Y-412873D01*
G01X14174949Y-424303D01*
G01X14169107Y-429891D01*
G01X14152089Y-435733D01*
G01X14129229Y-435733D01*
G01X14111957Y-429891D01*
G01X14106369Y-424303D01*
G01X14100527Y-412873D01*
G01X14100527Y-395601D01*
G01X14106369Y-384171D01*
G01X14117799Y-372741D01*
G01X14134817Y-367153D01*
G01X14157677Y-361311D01*
G01X14169107Y-355723D01*
G01X14174949Y-344293D01*
G01X14174949Y-332863D01*
G01X14169107Y-321433D01*
G01X14152089Y-315591D01*
G01X14129229Y-315591D01*
G01X14228289Y-355723D02*
G01X14228289Y-435733D01*
G01X14228289Y-378583D02*
G01X14245561Y-361311D01*
G01X14256991Y-355723D01*
G01X14274009Y-355723D01*
G01X14285439Y-361311D01*
G01X14291281Y-378583D01*
G01X14291281Y-435733D01*
G01X14291281Y-378583D02*
G01X14308299Y-361311D01*
G01X14319729Y-355723D01*
G01X14337001Y-355723D01*
G01X14348431Y-361311D01*
G01X14354019Y-378583D01*
G01X14354019Y-435733D01*
G01X14401771Y-315591D02*
G01X14407613Y-321433D01*
G01X14413201Y-315591D01*
G01X14407613Y-310003D01*
G01X14401771Y-315591D01*
G01X14407613Y-355723D02*
G01X14407613Y-435733D01*
G01X14460953Y-315591D02*
G01X14460953Y-435733D01*
G01X14548837Y-292731D02*
G01X14537407Y-304161D01*
G01X14525977Y-321433D01*
G01X14514547Y-344293D01*
G01X14508705Y-372741D01*
G01X14508705Y-395601D01*
G01X14514547Y-424303D01*
G01X14525977Y-447163D01*
G01X14537407Y-464181D01*
G01X14548837Y-475611D01*
G01X14630879Y-315591D02*
G01X14613861Y-321433D01*
G01X14602431Y-338451D01*
G01X14596589Y-367153D01*
G01X14596589Y-384171D01*
G01X14602431Y-412873D01*
G01X14613861Y-429891D01*
G01X14630879Y-435733D01*
G01X14642309Y-435733D01*
G01X14659581Y-429891D01*
G01X14671011Y-412873D01*
G01X14676599Y-384171D01*
G01X14676599Y-367153D01*
G01X14671011Y-338451D01*
G01X14659581Y-321433D01*
G01X14642309Y-315591D01*
G01X14630879Y-315591D01*
G01X14730193Y-407031D02*
G01X14724351Y-412873D01*
G01X14730193Y-418461D01*
G01X14735781Y-412873D01*
G01X14730193Y-407031D01*
G01X14794963Y-315591D02*
G01X14857955Y-315591D01*
G01X14823665Y-361311D01*
G01X14840683Y-361311D01*
G01X14852113Y-367153D01*
G01X14857955Y-372741D01*
G01X14863543Y-390013D01*
G01X14863543Y-401443D01*
G01X14857955Y-418461D01*
G01X14846525Y-429891D01*
G01X14829253Y-435733D01*
G01X14812235Y-435733D01*
G01X14794963Y-429891D01*
G01X14789375Y-424303D01*
G01X14783533Y-412873D01*
G01X14945585Y-315591D02*
G01X14928567Y-321433D01*
G01X14917137Y-338451D01*
G01X14911295Y-367153D01*
G01X14911295Y-384171D01*
G01X14917137Y-412873D01*
G01X14928567Y-429891D01*
G01X14945585Y-435733D01*
G01X14957015Y-435733D01*
G01X14974287Y-429891D01*
G01X14985717Y-412873D01*
G01X14991305Y-384171D01*
G01X14991305Y-367153D01*
G01X14985717Y-338451D01*
G01X14974287Y-321433D01*
G01X14957015Y-315591D01*
G01X14945585Y-315591D01*
G01X15073347Y-315591D02*
G01X15056329Y-321433D01*
G01X15044899Y-338451D01*
G01X15039057Y-367153D01*
G01X15039057Y-384171D01*
G01X15044899Y-412873D01*
G01X15056329Y-429891D01*
G01X15073347Y-435733D01*
G01X15084777Y-435733D01*
G01X15102049Y-429891D01*
G01X15113479Y-412873D01*
G01X15119067Y-384171D01*
G01X15119067Y-367153D01*
G01X15113479Y-338451D01*
G01X15102049Y-321433D01*
G01X15084777Y-315591D01*
G01X15073347Y-315591D01*
G01X15166819Y-355723D02*
G01X15166819Y-435733D01*
G01X15166819Y-378583D02*
G01X15184091Y-361311D01*
G01X15195521Y-355723D01*
G01X15212539Y-355723D01*
G01X15223969Y-361311D01*
G01X15229811Y-378583D01*
G01X15229811Y-435733D01*
G01X15229811Y-378583D02*
G01X15246829Y-361311D01*
G01X15258259Y-355723D01*
G01X15275531Y-355723D01*
G01X15286961Y-361311D01*
G01X15292549Y-378583D01*
G01X15292549Y-435733D01*
G01X15340301Y-355723D02*
G01X15340301Y-435733D01*
G01X15340301Y-378583D02*
G01X15357573Y-361311D01*
G01X15369003Y-355723D01*
G01X15386021Y-355723D01*
G01X15397451Y-361311D01*
G01X15403293Y-378583D01*
G01X15403293Y-435733D01*
G01X15403293Y-378583D02*
G01X15420311Y-361311D01*
G01X15431741Y-355723D01*
G01X15449013Y-355723D01*
G01X15460443Y-361311D01*
G01X15466031Y-378583D01*
G01X15466031Y-435733D01*
G01X15513783Y-292731D02*
G01X15525213Y-304161D01*
G01X15536643Y-321433D01*
G01X15548073Y-344293D01*
G01X15553915Y-372741D01*
G01X15553915Y-395601D01*
G01X15548073Y-424303D01*
G01X15536643Y-447163D01*
G01X15525213Y-464181D01*
G01X15513783Y-475611D01*
G01X17782402Y-315591D02*
G01X17782402Y-435733D01*
G01X17782402Y-315591D02*
G01X17833964Y-315591D01*
G01X17850982Y-321433D01*
G01X17856824Y-327021D01*
G01X17862412Y-338451D01*
G01X17862412Y-355723D01*
G01X17856824Y-367153D01*
G01X17850982Y-372741D01*
G01X17833964Y-378583D01*
G01X17782402Y-378583D01*
G01X17950296Y-315591D02*
G01X17950296Y-435733D01*
G01X17910164Y-315591D02*
G01X17990174Y-315591D01*
G01X18037926Y-315591D02*
G01X18037926Y-435733D01*
G01X18117936Y-315591D02*
G01X18117936Y-435733D01*
G01X18037926Y-372741D02*
G01X18117936Y-372741D01*
G01X19243810Y-315591D02*
G01X19243810Y-435733D01*
G01X19243810Y-315591D02*
G01X19295372Y-315591D01*
G01X19312390Y-321433D01*
G01X19318232Y-327021D01*
G01X19323820Y-338451D01*
G01X19323820Y-349881D01*
G01X19318232Y-361311D01*
G01X19312390Y-367153D01*
G01X19295372Y-372741D01*
G01X19243810Y-372741D01*
G01X19283942Y-372741D02*
G01X19323820Y-435733D01*
G01X19400274Y-355723D02*
G01X19388844Y-361311D01*
G01X19377414Y-372741D01*
G01X19371572Y-390013D01*
G01X19371572Y-401443D01*
G01X19377414Y-418461D01*
G01X19388844Y-429891D01*
G01X19400274Y-435733D01*
G01X19417292Y-435733D01*
G01X19428722Y-429891D01*
G01X19440152Y-418461D01*
G01X19445994Y-401443D01*
G01X19445994Y-390013D01*
G01X19440152Y-372741D01*
G01X19428722Y-361311D01*
G01X19417292Y-355723D01*
G01X19400274Y-355723D01*
G01X19493746Y-355723D02*
G01X19493746Y-412873D01*
G01X19499588Y-429891D01*
G01X19511018Y-435733D01*
G01X19528036Y-435733D01*
G01X19539466Y-429891D01*
G01X19556738Y-412873D01*
G01X19556738Y-355723D02*
G01X19556738Y-435733D01*
G01X19604490Y-355723D02*
G01X19604490Y-435733D01*
G01X19604490Y-378583D02*
G01X19621762Y-361311D01*
G01X19633192Y-355723D01*
G01X19650210Y-355723D01*
G01X19661640Y-361311D01*
G01X19667482Y-378583D01*
G01X19667482Y-435733D01*
G01X19783814Y-315591D02*
G01X19783814Y-435733D01*
G01X19783814Y-372741D02*
G01X19772384Y-361311D01*
G01X19760954Y-355723D01*
G01X19743936Y-355723D01*
G01X19732506Y-361311D01*
G01X19721076Y-372741D01*
G01X19715234Y-390013D01*
G01X19715234Y-401443D01*
G01X19721076Y-418461D01*
G01X19732506Y-429891D01*
G01X19743936Y-435733D01*
G01X19760954Y-435733D01*
G01X19772384Y-429891D01*
G01X19783814Y-418461D01*
G01X20674991Y-315591D02*
G01X20720711Y-435733D01*
G01X20766431Y-315591D02*
G01X20720711Y-435733D01*
G01X20814183Y-315591D02*
G01X20820025Y-321433D01*
G01X20825613Y-315591D01*
G01X20820025Y-310003D01*
G01X20814183Y-315591D01*
G01X20820025Y-355723D02*
G01X20820025Y-435733D01*
G01X20941945Y-355723D02*
G01X20941945Y-435733D01*
G01X20941945Y-372741D02*
G01X20930515Y-361311D01*
G01X20919085Y-355723D01*
G01X20902067Y-355723D01*
G01X20890637Y-361311D01*
G01X20879207Y-372741D01*
G01X20873365Y-390013D01*
G01X20873365Y-401443D01*
G01X20879207Y-418461D01*
G01X20890637Y-429891D01*
G01X20902067Y-435733D01*
G01X20919085Y-435733D01*
G01X20930515Y-429891D01*
G01X20941945Y-418461D01*
G01X24303671Y-315591D02*
G01X24303671Y-435733D01*
G01X24263539Y-315591D02*
G01X24343549Y-315591D01*
G01X24420003Y-355723D02*
G01X24408573Y-361311D01*
G01X24397143Y-372741D01*
G01X24391301Y-390013D01*
G01X24391301Y-401443D01*
G01X24397143Y-418461D01*
G01X24408573Y-429891D01*
G01X24420003Y-435733D01*
G01X24437021Y-435733D01*
G01X24448451Y-429891D01*
G01X24459881Y-418461D01*
G01X24465723Y-401443D01*
G01X24465723Y-390013D01*
G01X24459881Y-372741D01*
G01X24448451Y-361311D01*
G01X24437021Y-355723D01*
G01X24420003Y-355723D01*
G01X24513475Y-355723D02*
G01X24513475Y-475611D01*
G01X24513475Y-372741D02*
G01X24524905Y-361311D01*
G01X24536335Y-355723D01*
G01X24553607Y-355723D01*
G01X24565037Y-361311D01*
G01X24576467Y-372741D01*
G01X24582055Y-390013D01*
G01X24582055Y-401443D01*
G01X24576467Y-418461D01*
G01X24565037Y-429891D01*
G01X24553607Y-435733D01*
G01X24536335Y-435733D01*
G01X24524905Y-429891D01*
G01X24513475Y-418461D01*
G01X24757823Y-315591D02*
G01X24757823Y-435733D01*
G01X24757823Y-435733D02*
G01X24826403Y-435733D01*
G01X24942735Y-355723D02*
G01X24942735Y-435733D01*
G01X24942735Y-372741D02*
G01X24931305Y-361311D01*
G01X24919875Y-355723D01*
G01X24902857Y-355723D01*
G01X24891427Y-361311D01*
G01X24879997Y-372741D01*
G01X24874155Y-390013D01*
G01X24874155Y-401443D01*
G01X24879997Y-418461D01*
G01X24891427Y-429891D01*
G01X24902857Y-435733D01*
G01X24919875Y-435733D01*
G01X24931305Y-429891D01*
G01X24942735Y-418461D01*
G01X24996329Y-355723D02*
G01X25030619Y-435733D01*
G01X25064909Y-355723D02*
G01X25030619Y-435733D01*
G01X25019189Y-458593D01*
G01X25007759Y-470023D01*
G01X24996329Y-475611D01*
G01X24990487Y-475611D01*
G01X25112661Y-390013D02*
G01X25181241Y-390013D01*
G01X25181241Y-378583D01*
G01X25175653Y-367153D01*
G01X25169811Y-361311D01*
G01X25158381Y-355723D01*
G01X25141363Y-355723D01*
G01X25129933Y-361311D01*
G01X25118503Y-372741D01*
G01X25112661Y-390013D01*
G01X25112661Y-401443D01*
G01X25118503Y-418461D01*
G01X25129933Y-429891D01*
G01X25141363Y-435733D01*
G01X25158381Y-435733D01*
G01X25169811Y-429891D01*
G01X25181241Y-418461D01*
G01X25228993Y-355723D02*
G01X25228993Y-435733D01*
G01X25228993Y-390013D02*
G01X25234835Y-372741D01*
G01X25246265Y-361311D01*
G01X25257695Y-355723D01*
G01X25274713Y-355723D01*
G01X25322465Y-384171D02*
G01X25425335Y-384171D01*
G01X25473087Y-315591D02*
G01X25473087Y-435733D01*
G01X25473087Y-315591D02*
G01X25524649Y-315591D01*
G01X25541667Y-321433D01*
G01X25547509Y-327021D01*
G01X25553097Y-338451D01*
G01X25553097Y-349881D01*
G01X25547509Y-361311D01*
G01X25541667Y-367153D01*
G01X25524649Y-372741D01*
G01X25473087Y-372741D02*
G01X25524649Y-372741D01*
G01X25541667Y-378583D01*
G01X25547509Y-384171D01*
G01X25553097Y-395601D01*
G01X25553097Y-412873D01*
G01X25547509Y-424303D01*
G01X25541667Y-429891D01*
G01X25524649Y-435733D01*
G01X25473087Y-435733D01*
G01X25629551Y-355723D02*
G01X25618121Y-361311D01*
G01X25606691Y-372741D01*
G01X25600849Y-390013D01*
G01X25600849Y-401443D01*
G01X25606691Y-418461D01*
G01X25618121Y-429891D01*
G01X25629551Y-435733D01*
G01X25646569Y-435733D01*
G01X25657999Y-429891D01*
G01X25669429Y-418461D01*
G01X25675271Y-401443D01*
G01X25675271Y-390013D01*
G01X25669429Y-372741D01*
G01X25657999Y-361311D01*
G01X25646569Y-355723D01*
G01X25629551Y-355723D01*
G01X25740295Y-315591D02*
G01X25740295Y-412873D01*
G01X25745883Y-429891D01*
G01X25757313Y-435733D01*
G01X25768743Y-435733D01*
G01X25723023Y-355723D02*
G01X25763155Y-355723D01*
G01X25833767Y-315591D02*
G01X25833767Y-412873D01*
G01X25839355Y-429891D01*
G01X25850785Y-435733D01*
G01X25862215Y-435733D01*
G01X25816495Y-355723D02*
G01X25856627Y-355723D01*
G01X25938669Y-355723D02*
G01X25927239Y-361311D01*
G01X25915809Y-372741D01*
G01X25909967Y-390013D01*
G01X25909967Y-401443D01*
G01X25915809Y-418461D01*
G01X25927239Y-429891D01*
G01X25938669Y-435733D01*
G01X25955687Y-435733D01*
G01X25967117Y-429891D01*
G01X25978547Y-418461D01*
G01X25984389Y-401443D01*
G01X25984389Y-390013D01*
G01X25978547Y-372741D01*
G01X25967117Y-361311D01*
G01X25955687Y-355723D01*
G01X25938669Y-355723D01*
G01X26032141Y-355723D02*
G01X26032141Y-435733D01*
G01X26032141Y-378583D02*
G01X26049413Y-361311D01*
G01X26060843Y-355723D01*
G01X26077861Y-355723D01*
G01X26089291Y-361311D01*
G01X26095133Y-378583D01*
G01X26095133Y-435733D01*
G01X26095133Y-378583D02*
G01X26112151Y-361311D01*
G01X26123581Y-355723D01*
G01X26140853Y-355723D01*
G01X26152283Y-361311D01*
G01X26157871Y-378583D01*
G01X26157871Y-435733D01*
G01X26333639Y-315591D02*
G01X26333639Y-435733D01*
G01X26333639Y-435733D02*
G01X26402219Y-435733D01*
G01X26518551Y-355723D02*
G01X26518551Y-435733D01*
G01X26518551Y-372741D02*
G01X26507121Y-361311D01*
G01X26495691Y-355723D01*
G01X26478673Y-355723D01*
G01X26467243Y-361311D01*
G01X26455813Y-372741D01*
G01X26449971Y-390013D01*
G01X26449971Y-401443D01*
G01X26455813Y-418461D01*
G01X26467243Y-429891D01*
G01X26478673Y-435733D01*
G01X26495691Y-435733D01*
G01X26507121Y-429891D01*
G01X26518551Y-418461D01*
G01X26572145Y-355723D02*
G01X26606435Y-435733D01*
G01X26640725Y-355723D02*
G01X26606435Y-435733D01*
G01X26595005Y-458593D01*
G01X26583575Y-470023D01*
G01X26572145Y-475611D01*
G01X26566303Y-475611D01*
G01X26688477Y-390013D02*
G01X26757057Y-390013D01*
G01X26757057Y-378583D01*
G01X26751469Y-367153D01*
G01X26745627Y-361311D01*
G01X26734197Y-355723D01*
G01X26717179Y-355723D01*
G01X26705749Y-361311D01*
G01X26694319Y-372741D01*
G01X26688477Y-390013D01*
G01X26688477Y-401443D01*
G01X26694319Y-418461D01*
G01X26705749Y-429891D01*
G01X26717179Y-435733D01*
G01X26734197Y-435733D01*
G01X26745627Y-429891D01*
G01X26757057Y-418461D01*
G01X26804809Y-355723D02*
G01X26804809Y-435733D01*
G01X26804809Y-390013D02*
G01X26810651Y-372741D01*
G01X26822081Y-361311D01*
G01X26833511Y-355723D01*
G01X26850529Y-355723D01*

G04 Image Start*
G36*
G01X11309662Y-496203D02*
G01X11204049Y-484723D01*
G01X11161174Y-581928D01*
G01X11118299Y-484723D01*
G01X11012686Y-496203D01*
G01X11075449Y-410478D01*
G01X11035727Y-356224D01*
G01X11067219Y-356224D01*
G01X11106920Y-410478D01*
G01X11067219Y-464733D01*
G01X11134047Y-457468D01*
G01X11134047Y-457468D01*
G01X11161174Y-518962D01*
G01X11188301Y-457468D01*
G01X11255129Y-464733D01*
G01X11215428Y-410478D01*
G01X11255103Y-356249D01*
G01X11188276Y-363514D01*
G01X11161174Y-301995D01*
G01X11134047Y-363488D01*
G01X11067219Y-356224D01*
G01X11035727Y-356224D01*
G01X11012686Y-324753D01*
G01X11118324Y-336234D01*
G01X11161174Y-239028D01*
G01X11204049Y-336234D01*
G01X11309662Y-324753D01*
G01X11246899Y-410478D01*
G01X11309662Y-496203D01*
G37*
G36*
G01X11180669Y618101D02*
G01X11172929Y617513D01*
G01X11165086Y617314D01*
G01X11157242Y617513D01*
G01X11149502Y618101D01*
G01X11141875Y619070D01*
G01X11134370Y620410D01*
G01X11119764Y624165D01*
G01X11105761Y629290D01*
G01X11092439Y635707D01*
G01X11079874Y643340D01*
G01X11068142Y652113D01*
G01X11057320Y661949D01*
G01X11047484Y672771D01*
G01X11038711Y684503D01*
G01X11031078Y697068D01*
G01X11024661Y710390D01*
G01X11019537Y724393D01*
G01X11015782Y738998D01*
G01X11014441Y746504D01*
G01X11013472Y754131D01*
G01X11012884Y761871D01*
G01X11012686Y769714D01*
G01X11038086Y769714D01*
G01X11038743Y756748D01*
G01X11040670Y744152D01*
G01X11043805Y731990D01*
G01X11048082Y720328D01*
G01X11053436Y709229D01*
G01X11059805Y698757D01*
G01X11067122Y688977D01*
G01X11075325Y679954D01*
G01X11084348Y671751D01*
G01X11094128Y664434D01*
G01X11104600Y658065D01*
G01X11115699Y652711D01*
G01X11127361Y648434D01*
G01X11139523Y645299D01*
G01X11139523Y645299D01*
G01X11152119Y643371D01*
G01X11165086Y642714D01*
G01X11178052Y643371D01*
G01X11190648Y645299D01*
G01X11202810Y648434D01*
G01X11214472Y652711D01*
G01X11225572Y658065D01*
G01X11236043Y664434D01*
G01X11245823Y671751D01*
G01X11254846Y679954D01*
G01X11263049Y688977D01*
G01X11270366Y698757D01*
G01X11276735Y709229D01*
G01X11282089Y720328D01*
G01X11286366Y731990D01*
G01X11289501Y744152D01*
G01X11291429Y756748D01*
G01X11292086Y769714D01*
G01X11291429Y782681D01*
G01X11289501Y795277D01*
G01X11286366Y807439D01*
G01X11282089Y819101D01*
G01X11276735Y830200D01*
G01X11270366Y840672D01*
G01X11263049Y850452D01*
G01X11254846Y859475D01*
G01X11245823Y867678D01*
G01X11236043Y874995D01*
G01X11225572Y881364D01*
G01X11214472Y886718D01*
G01X11202810Y890995D01*
G01X11190648Y894130D01*
G01X11178052Y896058D01*
G01X11165086Y896714D01*
G01X11152119Y896058D01*
G01X11139523Y894130D01*
G01X11127361Y890995D01*
G01X11115699Y886718D01*
G01X11104600Y881364D01*
G01X11094128Y874995D01*
G01X11084348Y867678D01*
G01X11075325Y859475D01*
G01X11067122Y850452D01*
G01X11059805Y840672D01*
G01X11053436Y830200D01*
G01X11048082Y819101D01*
G01X11043805Y807439D01*
G01X11040670Y795277D01*
G01X11038743Y782681D01*
G01X11038086Y769714D01*
G01X11012686Y769714D01*
G01X11012884Y777558D01*
G01X11013472Y785298D01*
G01X11014441Y792925D01*
G01X11015782Y800430D01*
G01X11019537Y815036D01*
G01X11024661Y829039D01*
G01X11031078Y842361D01*
G01X11038711Y854926D01*
G01X11047484Y866658D01*
G01X11057320Y877480D01*
G01X11068142Y887316D01*
G01X11079874Y896089D01*
G01X11092439Y903722D01*
G01X11105761Y910139D01*
G01X11119764Y915263D01*
G01X11134370Y919019D01*
G01X11141875Y920359D01*
G01X11149502Y921328D01*
G01X11157242Y921916D01*
G01X11165086Y922114D01*
G01X11172929Y921916D01*
G01X11180669Y921328D01*
G01X11188296Y920359D01*
G01X11195802Y919019D01*
G01X11210407Y915263D01*
G01X11224410Y910139D01*
G01X11237732Y903722D01*
G01X11250297Y896089D01*
G01X11262029Y887316D01*
G01X11272851Y877480D01*
G01X11282687Y866658D01*
G01X11291460Y854926D01*
G01X11299093Y842361D01*
G01X11305510Y829039D01*
G01X11310635Y815036D01*
G01X11314390Y800430D01*
G01X11315730Y792925D01*
G01X11316699Y785298D01*
G01X11317287Y777558D01*
G01X11317486Y769714D01*
G01X11317287Y761871D01*
G01X11316699Y754131D01*
G01X11315730Y746504D01*
G01X11314390Y738998D01*
G01X11310635Y724393D01*
G01X11305510Y710390D01*
G01X11299093Y697068D01*
G01X11291460Y684503D01*
G01X11282687Y672771D01*
G01X11272851Y661949D01*
G01X11262029Y652113D01*
G01X11250297Y643340D01*
G01X11237732Y635707D01*
G01X11224410Y629290D01*
G01X11210407Y624165D01*
G01X11195802Y620410D01*
G01X11188296Y619070D01*
G01X11180669Y618101D01*
G37*
G36*
G01X11012686Y341543D02*
G01X11317486Y341543D01*
G01X11165086Y77586D01*
G01X11027351Y316143D01*
G01X11056678Y316143D01*
G01X11165086Y128386D01*
G01X11273493Y316143D01*
G01X11273493Y316143D01*
G01X11056678Y316143D01*
G01X11027351Y316143D01*
G01X11012686Y341543D01*
G37*
G36*
G01X11012686Y1502686D02*
G01X11292086Y1502686D01*
G01X11292086Y1223286D01*
G01X11012686Y1223286D01*
G01X11012686Y1477286D01*
G01X11038086Y1477286D01*
G01X11038086Y1248686D01*
G01X11266686Y1248686D01*
G01X11266686Y1477286D01*
G01X11266686Y1477286D01*
G01X11038086Y1477286D01*
G01X11012686Y1477286D01*
G01X11012686Y1502686D01*
G37*

G04 PolygonModel Start*
G54D15*
G01X10722400Y-674457D02*
G01X27441260Y-674457D01*
G01X10722400Y-93886D02*
G01X27441260Y-93886D01*
G01X10722400Y486686D02*
G01X27441260Y486686D01*
G01X10722400Y1067257D02*
G01X27441260Y1067257D01*
G01X10722400Y1647829D02*
G01X27441260Y1647829D01*
G01X10722400Y2228400D02*
G01X27441260Y2228400D01*
G01X10722400Y2228400D02*
G01X10722400Y-674457D01*
G01X12173828Y2228400D02*
G01X12173828Y-674457D01*
G01X13587992Y2228400D02*
G01X13587992Y-674457D01*
G01X17481957Y2228400D02*
G01X17481957Y-674457D01*
G01X18943364Y2228400D02*
G01X18943364Y-674457D01*
G01X20374545Y2228400D02*
G01X20374545Y-674457D01*
G01X22043724Y2228400D02*
G01X22043724Y-674457D01*
G01X23963093Y2228400D02*
G01X23963093Y-674457D01*
G01X27441260Y2228400D02*
G01X27441260Y-674457D01*

M02*

