G04 Layer: TopLayer*
G04 EasyEDA Pro v4.1.60, 2026-10-07 22:49:11*
G04 Gerber Generator version 0.3*
G04 Scale: 100 percent, Rotated: No, Reflected: No*
G04 Dimensions in millimeters*
G04 Leading zeros omitted, absolute positions, 4 integers and 5 decimals*
G04 Generated by one-click*
G04 Object Configs: Pad,Via,Track,Text,Image,Dimension,BoardOutline,BoardCutout,CopperFilled,SolidRegion,FPCStiffener,Line,PlaneZone,ComponentProperty,ComponentSilkscreen,TearDrop*
G04 Layer Configs: 1,2,3,4,5,6,7,8,9,10,58,59,11,13,14,56*
G04 Copper Areas: 22*
%FSLAX45Y45*%
%MOMM*%
%ADD10C,0.2*%
%ADD11C,0.254*%
%ADD12R,2.49999X1.0*%
%ADD13O,2.99999X1.3*%
%ADD14R,2.0X0.35001*%
%ADD15R,1.1001X1.5*%
%ADD16R,1.1X1.5*%
%ADD17O,1.8X1.0*%
%ADD18R,3.0X0.3*%
%ADD19C,0.55*%
%ADD20C,0.13*%
G75*

G54D10*

G04 Copper Start*
G01X-890600Y980346D02*
G01X-877451Y980346D01*
G03X-845196Y784346I32254J-95346D01*
G01X-675197Y784346D01*
G03X-675197Y985654I0J100654D01*
G01X-677683Y985654D01*
G03X-660746Y1016318I-18716J30347D01*
G01X-660746Y1148400D01*
G03X-670344Y1172737I-35654J0D01*
G01X-613603Y1172737D01*
G03X-567847Y1185982I0J85654D01*
G03X-533597Y1160234I34250J9905D01*
G01X-423597Y1160234D01*
G03X-387943Y1195888I0J35654D01*
G01X-387943Y1345887D01*
G03X-423597Y1381541I-35654J0D01*
G01X-533597Y1381541D01*
G03X-564249Y1364098I0J-35654D01*
G01X-564254Y1505235D01*
G01X-413599Y1505235D01*
G03X-377945Y1540889I0J35654D01*
G01X-377945Y1575891D01*
G03X-381253Y1590889I-35654J0D01*
G03X-377945Y1605888I-32346J14999D01*
G01X-377945Y1640889D01*
G03X-380352Y1653768I-35654J0D01*
G02X-375850Y1656719I37614J-52483D01*
G03X-360274Y1676158I-18283J30609D01*
G01X-341522Y1676158D01*
G02X-203462Y1618972I0J-195246D01*
G01X-186540Y1602049D01*
G03X14811Y1518647I201351J201351D01*
G01X8280079Y1518647D01*
G03X8283744Y1511780I33099J13254D01*
G03X8282746Y1503401I34655J-8379D01*
G01X8282746Y1473401D01*
G03X8284177Y1463401I35654J0D01*
G03X8282746Y1453401I34223J-10000D01*
G01X8282746Y1424054D01*
G01X-136100Y1424054D01*
G03X-211754Y1348400I0J-75654D01*
G01X-211754Y1188400D01*
G02X-216100Y1184054I-4346J0D01*
G01X-225400Y1184054D01*
G03X-261054Y1148400I0J-35654D01*
G01X-261054Y1016000D01*
G03X-225400Y980346I35654J0D01*
G01X-200000Y980346D01*
G02X-135654Y916000I0J-64346D01*
G01X-135654Y700000D01*
G03X0Y564346I135654J0D01*
G01X8686746Y564346D01*
G01X8686746Y35654D01*
G01X0Y35654D01*
G03X-135654Y-100000I0J-135654D01*
G01X-135654Y-316000D01*
G02X-200000Y-380346I-64346J0D01*
G01X-642942Y-380346D01*
G03X-675197Y-184346I-32255J95346D01*
G01X-845196Y-184346D01*
G03X-877451Y-380346I0J-100654D01*
G01X-890600Y-380346D01*
G02X-954946Y-316000I0J64346D01*
G01X-954946Y916000D01*
G02X-890600Y980346I64346J0D01*
G01X-345869Y287977D02*
G01X-356331Y279525D01*
G01X-357502Y278722D01*
G03X-366472Y272654I15262J-32222D01*
G03X-390704Y282154I-24232J-26154D01*
G02X-397762Y283426I0J20228D01*
G03X-410204Y285667I-12441J-33413D01*
G01X-660203Y285667D01*
G03X-695857Y250013I0J-35654D01*
G01X-695857Y152427D01*
G03X-860852Y75019I-64339J-77407D01*
G03X-695857Y-2388I100655J0D01*
G01X-695857Y-99999D01*
G03X-660203Y-135653I35654J0D01*
G01X-410204Y-135653D01*
G03X-374550Y-99999I0J35654D01*
G01X-374550Y1D01*
G03X-410204Y35654I-35654J0D01*
G01X-660203Y35654D01*
G03X-667922Y34809I0J-35654D01*
G03X-667910Y115202I-92274J40211D01*
G03X-660203Y114359I7707J34811D01*
G01X-410204Y114359D01*
G03X-374550Y150013I0J35654D01*
G01X-374550Y201716D01*
G03X-366472Y207346I-16154J31785D01*
G03X-357499Y201277I24232J26154D01*
G01X-356331Y200475D01*
G01X-345869Y192023D01*
G03X-249765Y209022I41069J47977D01*
G03X-285091Y300000I-55035J30978D01*
G03X-249765Y390978I-19709J60000D01*
G03X-345869Y407977I-55035J-30978D01*
G01X-356331Y399526D01*
G01X-357502Y398722D01*
G03X-366472Y392654I15262J-32222D01*
G03X-374550Y398285I-24232J-26154D01*
G01X-374550Y450012D01*
G03X-410204Y485666I-35654J0D01*
G01X-660203Y485666D01*
G03X-667910Y484823I0J-35654D01*
G03X-667910Y565188I-92287J40182D01*
G03X-660203Y564345I7707J34811D01*
G01X-410204Y564345D01*
G03X-374550Y599999I0J35654D01*
G01X-374550Y699999D01*
G03X-410204Y735653I-35654J0D01*
G01X-660203Y735653D01*
G03X-695857Y699999I0J-35654D01*
G01X-695857Y602413D01*
G03X-860852Y525006I-64339J-77407D01*
G03X-695857Y447599I100655J0D01*
G01X-695857Y350013D01*
G03X-660203Y314359I35654J0D01*
G01X-410204Y314359D01*
G03X-397845Y316569I0J35654D01*
G02X-390703Y317846I7142J-19328D01*
G03X-366472Y327346I-0J35654D01*
G03X-357499Y321277I24232J26154D01*
G01X-356331Y320475D01*
G01X-345869Y312023D01*
G03X-324509Y300000I41069J47977D01*
G03X-345869Y287977I19709J-60000D01*
G01X-564251Y1408998D02*
G01X-468014Y1505235D01*
G01X-380424Y1592825D02*
G01X-301283Y1671966D01*
G01X-954856Y919398D02*
G01X-893998Y980256D01*
G01X-492713Y1381541D02*
G01X-231826Y1642429D01*
G01X-954946Y820314D02*
G01X-935240Y840019D01*
G01X-660746Y1114513D02*
G01X-601690Y1173569D01*
G01X-401440Y1373820D02*
G01X-179765Y1595495D01*
G01X-954946Y721319D02*
G01X-884098Y792167D01*
G01X-660748Y1015517D02*
G01X-516031Y1160234D01*
G01X-387943Y1288322D02*
G01X-122387Y1553878D01*
G01X-954946Y622324D02*
G01X-792924Y784346D01*
G01X-613074Y964196D02*
G01X-416277Y1160993D01*
G01X-388703Y1188567D02*
G01X-209134Y1368136D01*
G01X-155836Y1421435D02*
G01X-50930Y1526340D01*
G01X-954946Y523329D02*
G01X-693929Y784346D01*
G01X-576031Y902244D02*
G01X-211754Y1266521D01*
G01X-54221Y1424054D02*
G01X40371Y1518647D01*
G01X-954946Y424335D02*
G01X-860650Y518631D01*
G01X-753822Y625459D02*
G01X-695857Y683424D01*
G01X-643628Y735653D02*
G01X-261054Y1118227D01*
G01X44773Y1424054D02*
G01X139366Y1518647D01*
G01X-954946Y325340D02*
G01X-828870Y451416D01*
G01X-544633Y735653D02*
G01X-261054Y1019232D01*
G01X143768Y1424054D02*
G01X238361Y1518647D01*
G01X-954946Y226345D02*
G01X-756886Y424405D01*
G01X-659596Y521695D02*
G01X-616946Y564345D01*
G01X-445638Y735653D02*
G01X-200945Y980346D01*
G01X242763Y1424054D02*
G01X337356Y1518647D01*
G01X-954946Y127350D02*
G01X-695857Y386439D01*
G01X-596630Y485666D02*
G01X-517951Y564345D01*
G01X-375253Y707044D02*
G01X-140885Y941412D01*
G01X341758Y1424054D02*
G01X436350Y1518647D01*
G01X-954946Y28356D02*
G01X-668065Y315236D01*
G01X-497635Y485666D02*
G01X-418956Y564345D01*
G01X-374550Y608752D02*
G01X-135654Y847648D01*
G01X440752Y1424054D02*
G01X535345Y1518647D01*
G01X-954946Y-70639D02*
G01X-851550Y32757D01*
G01X-717935Y166372D02*
G01X-695857Y188450D01*
G01X-598640Y285667D02*
G01X-569948Y314359D01*
G01X-400102Y484205D02*
G01X-135654Y748653D01*
G01X539747Y1424054D02*
G01X634340Y1518647D01*
G01X-954946Y-169634D02*
G01X-801901Y-16589D01*
G01X-499645Y285667D02*
G01X-470954Y314359D01*
G01X-374550Y410762D02*
G01X-128572Y656741D01*
G01X638742Y1424054D02*
G01X733335Y1518647D01*
G01X-954946Y-268629D02*
G01X-941256Y-254939D01*
G01X-875258Y-188940D02*
G01X-695857Y-9540D01*
G01X-650663Y35654D02*
G01X-571958Y114359D01*
G01X-401684Y284634D02*
G01X-362295Y324022D01*
G01X-272217Y414100D02*
G01X-88836Y597481D01*
G01X737737Y1424054D02*
G01X832329Y1518647D01*
G01X-942014Y-354691D02*
G01X-928628Y-341306D01*
G01X-771669Y-184346D02*
G01X-695017Y-107694D01*
G01X-551668Y35654D02*
G01X-472964Y114359D01*
G01X-243846Y343477D02*
G01X-21295Y566028D01*
G01X836731Y1424054D02*
G01X931324Y1518647D01*
G01X-672705Y-184377D02*
G01X-623981Y-135653D01*
G01X-452673Y35654D02*
G01X-311161Y177167D01*
G01X-241967Y246361D02*
G01X76018Y564346D01*
G01X935726Y1424054D02*
G01X1030319Y1518647D01*
G01X-603593Y-214260D02*
G01X-524986Y-135653D01*
G01X-376818Y12515D02*
G01X175013Y564346D01*
G01X1034721Y1424054D02*
G01X1129314Y1518647D01*
G01X-574546Y-284208D02*
G01X-425992Y-135653D01*
G01X-374550Y-84211D02*
G01X274008Y564346D01*
G01X1133716Y1424054D02*
G01X1228308Y1518647D01*
G01X-571690Y-380346D02*
G01X373002Y564346D01*
G01X1232710Y1424054D02*
G01X1327303Y1518647D01*
G01X-472695Y-380346D02*
G01X471997Y564346D01*
G01X1331705Y1424054D02*
G01X1426298Y1518647D01*
G01X-373700Y-380346D02*
G01X-135654Y-142300D01*
G01X42300Y35654D02*
G01X570992Y564346D01*
G01X1430700Y1424054D02*
G01X1525293Y1518647D01*
G01X-274705Y-380346D02*
G01X-135654Y-241295D01*
G01X141295Y35654D02*
G01X669987Y564346D01*
G01X1529695Y1424054D02*
G01X1624287Y1518647D01*
G01X-165985Y-370620D02*
G01X-145380Y-350015D01*
G01X240289Y35654D02*
G01X768981Y564346D01*
G01X1628689Y1424054D02*
G01X1723282Y1518647D01*
G01X339284Y35654D02*
G01X867976Y564346D01*
G01X1727684Y1424054D02*
G01X1822277Y1518647D01*
G01X438279Y35654D02*
G01X966971Y564346D01*
G01X1826679Y1424054D02*
G01X1921272Y1518647D01*
G01X537274Y35654D02*
G01X1065966Y564346D01*
G01X1925674Y1424054D02*
G01X2020266Y1518647D01*
G01X636268Y35654D02*
G01X1164960Y564346D01*
G01X2024668Y1424054D02*
G01X2119261Y1518647D01*
G01X735263Y35654D02*
G01X1263955Y564346D01*
G01X2123663Y1424054D02*
G01X2218256Y1518647D01*
G01X834258Y35654D02*
G01X1362950Y564346D01*
G01X2222658Y1424054D02*
G01X2317251Y1518647D01*
G01X933253Y35654D02*
G01X1461945Y564346D01*
G01X2321653Y1424054D02*
G01X2416245Y1518647D01*
G01X1032247Y35654D02*
G01X1560939Y564346D01*
G01X2420647Y1424054D02*
G01X2515240Y1518647D01*
G01X1131242Y35654D02*
G01X1659934Y564346D01*
G01X2519642Y1424054D02*
G01X2614235Y1518647D01*
G01X1230237Y35654D02*
G01X1758929Y564346D01*
G01X2618637Y1424054D02*
G01X2713230Y1518647D01*
G01X1329232Y35654D02*
G01X1857924Y564346D01*
G01X2717632Y1424054D02*
G01X2812224Y1518647D01*
G01X1428226Y35654D02*
G01X1956918Y564346D01*
G01X2816626Y1424054D02*
G01X2911219Y1518647D01*
G01X1527221Y35654D02*
G01X2055913Y564346D01*
G01X2915621Y1424054D02*
G01X3010214Y1518647D01*
G01X1626216Y35654D02*
G01X2154908Y564346D01*
G01X3014616Y1424054D02*
G01X3109209Y1518647D01*
G01X1725211Y35654D02*
G01X2253903Y564346D01*
G01X3113611Y1424054D02*
G01X3208203Y1518647D01*
G01X1824205Y35654D02*
G01X2352897Y564346D01*
G01X3212605Y1424054D02*
G01X3307198Y1518647D01*
G01X1923200Y35654D02*
G01X2451892Y564346D01*
G01X3311600Y1424054D02*
G01X3406193Y1518647D01*
G01X2022195Y35654D02*
G01X2550887Y564346D01*
G01X3410595Y1424054D02*
G01X3505188Y1518647D01*
G01X2121190Y35654D02*
G01X2649882Y564346D01*
G01X3509590Y1424054D02*
G01X3604182Y1518647D01*
G01X2220184Y35654D02*
G01X2748876Y564346D01*
G01X3608584Y1424054D02*
G01X3703177Y1518647D01*
G01X2319179Y35654D02*
G01X2847871Y564346D01*
G01X3707579Y1424054D02*
G01X3802172Y1518647D01*
G01X2418174Y35654D02*
G01X2946866Y564346D01*
G01X3806574Y1424054D02*
G01X3901167Y1518647D01*
G01X2517169Y35654D02*
G01X3045861Y564346D01*
G01X3905569Y1424054D02*
G01X4000161Y1518647D01*
G01X2616163Y35654D02*
G01X3144855Y564346D01*
G01X4004563Y1424054D02*
G01X4099156Y1518647D01*
G01X2715158Y35654D02*
G01X3243850Y564346D01*
G01X4103558Y1424054D02*
G01X4198151Y1518647D01*
G01X2814153Y35654D02*
G01X3342845Y564346D01*
G01X4202553Y1424054D02*
G01X4297146Y1518647D01*
G01X2913148Y35654D02*
G01X3441840Y564346D01*
G01X4301548Y1424054D02*
G01X4396140Y1518647D01*
G01X3012142Y35654D02*
G01X3540834Y564346D01*
G01X4400542Y1424054D02*
G01X4495135Y1518647D01*
G01X3111137Y35654D02*
G01X3639829Y564346D01*
G01X4499537Y1424054D02*
G01X4594130Y1518647D01*
G01X3210132Y35654D02*
G01X3738824Y564346D01*
G01X4598532Y1424054D02*
G01X4693125Y1518647D01*
G01X3309127Y35654D02*
G01X3837819Y564346D01*
G01X4697527Y1424054D02*
G01X4792119Y1518647D01*
G01X3408121Y35654D02*
G01X3936814Y564346D01*
G01X4796521Y1424054D02*
G01X4891114Y1518647D01*
G01X3507116Y35654D02*
G01X4035808Y564346D01*
G01X4895516Y1424054D02*
G01X4990109Y1518647D01*
G01X3606111Y35654D02*
G01X4134803Y564346D01*
G01X4994511Y1424054D02*
G01X5089104Y1518647D01*
G01X3705106Y35654D02*
G01X4233798Y564346D01*
G01X5093506Y1424054D02*
G01X5188098Y1518647D01*
G01X3804100Y35654D02*
G01X4332793Y564346D01*
G01X5192500Y1424054D02*
G01X5287093Y1518647D01*
G01X3903095Y35654D02*
G01X4431787Y564346D01*
G01X5291495Y1424054D02*
G01X5386088Y1518647D01*
G01X4002090Y35654D02*
G01X4530782Y564346D01*
G01X5390490Y1424054D02*
G01X5485083Y1518647D01*
G01X4101085Y35654D02*
G01X4629777Y564346D01*
G01X5489485Y1424054D02*
G01X5584077Y1518647D01*
G01X4200079Y35654D02*
G01X4728772Y564346D01*
G01X5588479Y1424054D02*
G01X5683072Y1518647D01*
G01X4299074Y35654D02*
G01X4827766Y564346D01*
G01X5687474Y1424054D02*
G01X5782067Y1518647D01*
G01X4398069Y35654D02*
G01X4926761Y564346D01*
G01X5786469Y1424054D02*
G01X5881062Y1518647D01*
G01X4497064Y35654D02*
G01X5025756Y564346D01*
G01X5885464Y1424054D02*
G01X5980057Y1518647D01*
G01X4596058Y35654D02*
G01X5124751Y564346D01*
G01X5984458Y1424054D02*
G01X6079051Y1518647D01*
G01X4695053Y35654D02*
G01X5223745Y564346D01*
G01X6083453Y1424054D02*
G01X6178046Y1518647D01*
G01X4794048Y35654D02*
G01X5322740Y564346D01*
G01X6182448Y1424054D02*
G01X6277041Y1518647D01*
G01X4893043Y35654D02*
G01X5421735Y564346D01*
G01X6281443Y1424054D02*
G01X6376036Y1518647D01*
G01X4992037Y35654D02*
G01X5520730Y564346D01*
G01X6380437Y1424054D02*
G01X6475030Y1518647D01*
G01X5091032Y35654D02*
G01X5619724Y564346D01*
G01X6479432Y1424054D02*
G01X6574025Y1518647D01*
G01X5190027Y35654D02*
G01X5718719Y564346D01*
G01X6578427Y1424054D02*
G01X6673020Y1518647D01*
G01X5289022Y35654D02*
G01X5817714Y564346D01*
G01X6677422Y1424054D02*
G01X6772015Y1518647D01*
G01X5388016Y35654D02*
G01X5916709Y564346D01*
G01X6776416Y1424054D02*
G01X6871009Y1518647D01*
G01X5487011Y35654D02*
G01X6015703Y564346D01*
G01X6875411Y1424054D02*
G01X6970004Y1518647D01*
G01X5586006Y35654D02*
G01X6114698Y564346D01*
G01X6974406Y1424054D02*
G01X7068999Y1518647D01*
G01X5685001Y35654D02*
G01X6213693Y564346D01*
G01X7073401Y1424054D02*
G01X7167994Y1518647D01*
G01X5783995Y35654D02*
G01X6312688Y564346D01*
G01X7172395Y1424054D02*
G01X7266988Y1518647D01*
G01X5882990Y35654D02*
G01X6411682Y564346D01*
G01X7271390Y1424054D02*
G01X7365983Y1518647D01*
G01X5981985Y35654D02*
G01X6510677Y564346D01*
G01X7370385Y1424054D02*
G01X7464978Y1518647D01*
G01X6080980Y35654D02*
G01X6609672Y564346D01*
G01X7469380Y1424054D02*
G01X7563973Y1518647D01*
G01X6179974Y35654D02*
G01X6708667Y564346D01*
G01X7568375Y1424054D02*
G01X7662967Y1518647D01*
G01X6278969Y35654D02*
G01X6807661Y564346D01*
G01X7667369Y1424054D02*
G01X7761962Y1518647D01*
G01X6377964Y35654D02*
G01X6906656Y564346D01*
G01X7766364Y1424054D02*
G01X7860957Y1518647D01*
G01X6476959Y35654D02*
G01X7005651Y564346D01*
G01X7865359Y1424054D02*
G01X7959952Y1518647D01*
G01X6575953Y35654D02*
G01X7104646Y564346D01*
G01X7964354Y1424054D02*
G01X8058946Y1518647D01*
G01X6674948Y35654D02*
G01X7203640Y564346D01*
G01X8063348Y1424054D02*
G01X8157941Y1518647D01*
G01X6773943Y35654D02*
G01X7302635Y564346D01*
G01X8162343Y1424054D02*
G01X8256936Y1518647D01*
G01X6872938Y35654D02*
G01X7401630Y564346D01*
G01X8261338Y1424054D02*
G01X8282746Y1445462D01*
G01X6971932Y35654D02*
G01X7500625Y564346D01*
G01X7070927Y35654D02*
G01X7599619Y564346D01*
G01X7169922Y35654D02*
G01X7698614Y564346D01*
G01X7268917Y35654D02*
G01X7797609Y564346D01*
G01X7367911Y35654D02*
G01X7896604Y564346D01*
G01X7466906Y35654D02*
G01X7995598Y564346D01*
G01X7565901Y35654D02*
G01X8094593Y564346D01*
G01X7664896Y35654D02*
G01X8193588Y564346D01*
G01X7763890Y35654D02*
G01X8292583Y564346D01*
G01X7862885Y35654D02*
G01X8391577Y564346D01*
G01X7961880Y35654D02*
G01X8490572Y564346D01*
G01X8060875Y35654D02*
G01X8589567Y564346D01*
G01X8159869Y35654D02*
G01X8686746Y562530D01*
G01X8258864Y35654D02*
G01X8686746Y463536D01*
G01X8357859Y35654D02*
G01X8686746Y364541D01*
G01X8456854Y35654D02*
G01X8686746Y265546D01*
G01X8555848Y35654D02*
G01X8686746Y166551D01*
G01X8654843Y35654D02*
G01X8686746Y67557D01*
G01X-952056Y-335067D02*
G01X-909667Y-377456D01*
G01X-954946Y-233182D02*
G01X-939174Y-248954D01*
G01X-954946Y-134187D02*
G01X-892812Y-196321D01*
G01X-954946Y-35193D02*
G01X-805792Y-184346D01*
G01X-620587Y-369552D02*
G01X-609793Y-380346D01*
G01X-954946Y63802D02*
G01X-706798Y-184346D01*
G01X-578433Y-312711D02*
G01X-510798Y-380346D01*
G01X-954946Y162797D02*
G01X-860640Y68491D01*
G01X-766725Y-25424D02*
G01X-695857Y-96292D01*
G01X-656496Y-135653D02*
G01X-411803Y-380346D01*
G01X-954946Y261792D02*
G01X-835247Y142093D01*
G01X-557501Y-135653D02*
G01X-312808Y-380346D01*
G01X-954946Y360786D02*
G01X-769411Y175252D01*
G01X-659964Y65805D02*
G01X-629814Y35654D01*
G01X-458506Y-135653D02*
G01X-213814Y-380346D01*
G01X-954946Y459781D02*
G01X-695857Y200692D01*
G01X-609524Y114359D02*
G01X-530819Y35654D01*
G01X-378621Y-116544D02*
G01X-145292Y-349873D01*
G01X-954946Y558776D02*
G01X-677410Y281240D01*
G01X-510529Y114359D02*
G01X-431825Y35654D01*
G01X-374550Y-21620D02*
G01X-135654Y-260516D01*
G01X-954946Y657771D02*
G01X-855261Y558085D01*
G01X-727117Y429942D02*
G01X-695857Y398682D01*
G01X-611534Y314359D02*
G01X-582842Y285667D01*
G01X-411534Y114359D02*
G01X-135654Y-161521D01*
G01X-954946Y756765D02*
G01X-810418Y612237D01*
G01X-512539Y314359D02*
G01X-483847Y285667D01*
G01X-374550Y176369D02*
G01X-131499Y-66682D01*
G01X-954946Y855760D02*
G01X-930056Y830870D01*
G01X-899326Y800140D02*
G01X-713204Y614018D01*
G01X-663703Y564518D02*
G01X-584852Y485666D01*
G01X-413544Y314359D02*
G01X-379551Y280365D01*
G01X-280779Y181593D02*
G01X-95514Y-3672D01*
G01X-947059Y946868D02*
G01X-933500Y933309D01*
G01X-784537Y784346D02*
G01X-695857Y695666D01*
G01X-564536Y564345D02*
G01X-485857Y485666D01*
G01X-241663Y241472D02*
G01X-32014Y31822D01*
G01X-881542Y980346D02*
G01X-880468Y979272D01*
G01X-685543Y784346D02*
G01X-636849Y735653D01*
G01X-465542Y564345D02*
G01X-321971Y420775D01*
G01X-244025Y342829D02*
G01X63150Y35654D01*
G01X-610280Y808078D02*
G01X-537855Y735653D01*
G01X-381311Y579109D02*
G01X162144Y35654D01*
G01X-575365Y872159D02*
G01X-438860Y735653D01*
G01X-374550Y671343D02*
G01X261139Y35654D01*
G01X-660746Y1056534D02*
G01X360134Y35654D01*
G01X-661667Y1156449D02*
G01X459129Y35654D01*
G01X-584174Y1177951D02*
G01X-135654Y729431D01*
G01X29431Y564346D02*
G01X558123Y35654D01*
G01X-467462Y1160234D02*
G01X-135654Y828426D01*
G01X128426Y564346D02*
G01X657118Y35654D01*
G01X-390605Y1182371D02*
G01X-261054Y1052821D01*
G01X-187317Y979084D02*
G01X-136916Y928683D01*
G01X227421Y564346D02*
G01X756113Y35654D01*
G01X-564252Y1455014D02*
G01X-490780Y1381541D01*
G01X-387943Y1278705D02*
G01X-260904Y1151666D01*
G01X326416Y564346D02*
G01X855108Y35654D01*
G01X-515479Y1505235D02*
G01X-211754Y1201510D01*
G01X425410Y564346D02*
G01X954102Y35654D01*
G01X-416484Y1505235D02*
G01X-211754Y1300505D01*
G01X524405Y564346D02*
G01X1053097Y35654D01*
G01X-377945Y1565691D02*
G01X-200445Y1388191D01*
G01X623400Y564346D02*
G01X1152092Y35654D01*
G01X-372357Y1659097D02*
G01X-137304Y1424044D01*
G01X722395Y564346D02*
G01X1251087Y35654D01*
G01X-280711Y1666446D02*
G01X-38319Y1424054D01*
G01X821389Y564346D02*
G01X1350081Y35654D01*
G01X-39059Y1523789D02*
G01X60676Y1424054D01*
G01X920384Y564346D02*
G01X1449076Y35654D01*
G01X65078Y1518647D02*
G01X159671Y1424054D01*
G01X1019379Y564346D02*
G01X1548071Y35654D01*
G01X164073Y1518647D02*
G01X258666Y1424054D01*
G01X1118374Y564346D02*
G01X1647066Y35654D01*
G01X263068Y1518647D02*
G01X357660Y1424054D01*
G01X1217368Y564346D02*
G01X1746060Y35654D01*
G01X362062Y1518647D02*
G01X456655Y1424054D01*
G01X1316363Y564346D02*
G01X1845055Y35654D01*
G01X461057Y1518647D02*
G01X555650Y1424054D01*
G01X1415358Y564346D02*
G01X1944050Y35654D01*
G01X560052Y1518647D02*
G01X654645Y1424054D01*
G01X1514353Y564346D02*
G01X2043045Y35654D01*
G01X659047Y1518647D02*
G01X753639Y1424054D01*
G01X1613347Y564346D02*
G01X2142039Y35654D01*
G01X758041Y1518647D02*
G01X852634Y1424054D01*
G01X1712342Y564346D02*
G01X2241034Y35654D01*
G01X857036Y1518647D02*
G01X951629Y1424054D01*
G01X1811337Y564346D02*
G01X2340029Y35654D01*
G01X956031Y1518647D02*
G01X1050624Y1424054D01*
G01X1910332Y564346D02*
G01X2439024Y35654D01*
G01X1055026Y1518647D02*
G01X1149618Y1424054D01*
G01X2009326Y564346D02*
G01X2538018Y35654D01*
G01X1154020Y1518647D02*
G01X1248613Y1424054D01*
G01X2108321Y564346D02*
G01X2637013Y35654D01*
G01X1253015Y1518647D02*
G01X1347608Y1424054D01*
G01X2207316Y564346D02*
G01X2736008Y35654D01*
G01X1352010Y1518647D02*
G01X1446603Y1424054D01*
G01X2306311Y564346D02*
G01X2835003Y35654D01*
G01X1451005Y1518647D02*
G01X1545597Y1424054D01*
G01X2405305Y564346D02*
G01X2933997Y35654D01*
G01X1549999Y1518647D02*
G01X1644592Y1424054D01*
G01X2504300Y564346D02*
G01X3032992Y35654D01*
G01X1648994Y1518647D02*
G01X1743587Y1424054D01*
G01X2603295Y564346D02*
G01X3131987Y35654D01*
G01X1747989Y1518647D02*
G01X1842582Y1424054D01*
G01X2702290Y564346D02*
G01X3230982Y35654D01*
G01X1846984Y1518647D02*
G01X1941576Y1424054D01*
G01X2801284Y564346D02*
G01X3329976Y35654D01*
G01X1945978Y1518647D02*
G01X2040571Y1424054D01*
G01X2900279Y564346D02*
G01X3428971Y35654D01*
G01X2044973Y1518647D02*
G01X2139566Y1424054D01*
G01X2999274Y564346D02*
G01X3527966Y35654D01*
G01X2143968Y1518647D02*
G01X2238561Y1424054D01*
G01X3098269Y564346D02*
G01X3626961Y35654D01*
G01X2242963Y1518647D02*
G01X2337555Y1424054D01*
G01X3197263Y564346D02*
G01X3725955Y35654D01*
G01X2341957Y1518647D02*
G01X2436550Y1424054D01*
G01X3296258Y564346D02*
G01X3824950Y35654D01*
G01X2440952Y1518647D02*
G01X2535545Y1424054D01*
G01X3395253Y564346D02*
G01X3923945Y35654D01*
G01X2539947Y1518647D02*
G01X2634540Y1424054D01*
G01X3494248Y564346D02*
G01X4022940Y35654D01*
G01X2638942Y1518647D02*
G01X2733534Y1424054D01*
G01X3593242Y564346D02*
G01X4121934Y35654D01*
G01X2737936Y1518647D02*
G01X2832529Y1424054D01*
G01X3692237Y564346D02*
G01X4220929Y35654D01*
G01X2836931Y1518647D02*
G01X2931524Y1424054D01*
G01X3791232Y564346D02*
G01X4319924Y35654D01*
G01X2935926Y1518647D02*
G01X3030519Y1424054D01*
G01X3890227Y564346D02*
G01X4418919Y35654D01*
G01X3034921Y1518647D02*
G01X3129513Y1424054D01*
G01X3989221Y564346D02*
G01X4517913Y35654D01*
G01X3133915Y1518647D02*
G01X3228508Y1424054D01*
G01X4088216Y564346D02*
G01X4616908Y35654D01*
G01X3232910Y1518647D02*
G01X3327503Y1424054D01*
G01X4187211Y564346D02*
G01X4715903Y35654D01*
G01X3331905Y1518647D02*
G01X3426498Y1424054D01*
G01X4286206Y564346D02*
G01X4814898Y35654D01*
G01X3430900Y1518647D02*
G01X3525492Y1424054D01*
G01X4385200Y564346D02*
G01X4913892Y35654D01*
G01X3529894Y1518647D02*
G01X3624487Y1424054D01*
G01X4484195Y564346D02*
G01X5012887Y35654D01*
G01X3628889Y1518647D02*
G01X3723482Y1424054D01*
G01X4583190Y564346D02*
G01X5111882Y35654D01*
G01X3727884Y1518647D02*
G01X3822477Y1424054D01*
G01X4682185Y564346D02*
G01X5210877Y35654D01*
G01X3826879Y1518647D02*
G01X3921471Y1424054D01*
G01X4781179Y564346D02*
G01X5309871Y35654D01*
G01X3925873Y1518647D02*
G01X4020466Y1424054D01*
G01X4880174Y564346D02*
G01X5408866Y35654D01*
G01X4024868Y1518647D02*
G01X4119461Y1424054D01*
G01X4979169Y564346D02*
G01X5507861Y35654D01*
G01X4123863Y1518647D02*
G01X4218456Y1424054D01*
G01X5078164Y564346D02*
G01X5606856Y35654D01*
G01X4222858Y1518647D02*
G01X4317450Y1424054D01*
G01X5177158Y564346D02*
G01X5705850Y35654D01*
G01X4321852Y1518647D02*
G01X4416445Y1424054D01*
G01X5276153Y564346D02*
G01X5804845Y35654D01*
G01X4420847Y1518647D02*
G01X4515440Y1424054D01*
G01X5375148Y564346D02*
G01X5903840Y35654D01*
G01X4519842Y1518647D02*
G01X4614435Y1424054D01*
G01X5474143Y564346D02*
G01X6002835Y35654D01*
G01X4618837Y1518647D02*
G01X4713429Y1424054D01*
G01X5573137Y564346D02*
G01X6101829Y35654D01*
G01X4717831Y1518647D02*
G01X4812424Y1424054D01*
G01X5672132Y564346D02*
G01X6200824Y35654D01*
G01X4816826Y1518647D02*
G01X4911419Y1424054D01*
G01X5771127Y564346D02*
G01X6299819Y35654D01*
G01X4915821Y1518647D02*
G01X5010414Y1424054D01*
G01X5870122Y564346D02*
G01X6398814Y35654D01*
G01X5014816Y1518647D02*
G01X5109408Y1424054D01*
G01X5969116Y564346D02*
G01X6497808Y35654D01*
G01X5113810Y1518647D02*
G01X5208403Y1424054D01*
G01X6068111Y564346D02*
G01X6596803Y35654D01*
G01X5212805Y1518647D02*
G01X5307398Y1424054D01*
G01X6167106Y564346D02*
G01X6695798Y35654D01*
G01X5311800Y1518647D02*
G01X5406393Y1424054D01*
G01X6266101Y564346D02*
G01X6794793Y35654D01*
G01X5410795Y1518647D02*
G01X5505387Y1424054D01*
G01X6365095Y564346D02*
G01X6893787Y35654D01*
G01X5509789Y1518647D02*
G01X5604382Y1424054D01*
G01X6464090Y564346D02*
G01X6992782Y35654D01*
G01X5608784Y1518647D02*
G01X5703377Y1424054D01*
G01X6563085Y564346D02*
G01X7091777Y35654D01*
G01X5707779Y1518647D02*
G01X5802372Y1424054D01*
G01X6662080Y564346D02*
G01X7190772Y35654D01*
G01X5806774Y1518647D02*
G01X5901366Y1424054D01*
G01X6761074Y564346D02*
G01X7289766Y35654D01*
G01X5905768Y1518647D02*
G01X6000361Y1424054D01*
G01X6860069Y564346D02*
G01X7388761Y35654D01*
G01X6004763Y1518647D02*
G01X6099356Y1424054D01*
G01X6959064Y564346D02*
G01X7487756Y35654D01*
G01X6103758Y1518647D02*
G01X6198351Y1424054D01*
G01X7058059Y564346D02*
G01X7586751Y35654D01*
G01X6202753Y1518647D02*
G01X6297345Y1424054D01*
G01X7157053Y564346D02*
G01X7685745Y35654D01*
G01X6301747Y1518647D02*
G01X6396340Y1424054D01*
G01X7256048Y564346D02*
G01X7784740Y35654D01*
G01X6400742Y1518647D02*
G01X6495335Y1424054D01*
G01X7355043Y564346D02*
G01X7883735Y35654D01*
G01X6499737Y1518647D02*
G01X6594330Y1424054D01*
G01X7454038Y564346D02*
G01X7982730Y35654D01*
G01X6598732Y1518647D02*
G01X6693324Y1424054D01*
G01X7553032Y564346D02*
G01X8081724Y35654D01*
G01X6697726Y1518647D02*
G01X6792319Y1424054D01*
G01X7652027Y564346D02*
G01X8180719Y35654D01*
G01X6796721Y1518647D02*
G01X6891314Y1424054D01*
G01X7751022Y564346D02*
G01X8279714Y35654D01*
G01X6895716Y1518647D02*
G01X6990309Y1424054D01*
G01X7850017Y564346D02*
G01X8378709Y35654D01*
G01X6994711Y1518647D02*
G01X7089303Y1424054D01*
G01X7949011Y564346D02*
G01X8477703Y35654D01*
G01X7093705Y1518647D02*
G01X7188298Y1424054D01*
G01X8048006Y564346D02*
G01X8576698Y35654D01*
G01X7192700Y1518647D02*
G01X7287293Y1424054D01*
G01X8147001Y564346D02*
G01X8675693Y35654D01*
G01X7291695Y1518647D02*
G01X7386288Y1424054D01*
G01X8245996Y564346D02*
G01X8686746Y123596D01*
G01X7390690Y1518647D02*
G01X7485282Y1424054D01*
G01X8344990Y564346D02*
G01X8686746Y222591D01*
G01X7489684Y1518647D02*
G01X7584277Y1424054D01*
G01X8443985Y564346D02*
G01X8686746Y321585D01*
G01X7588679Y1518647D02*
G01X7683272Y1424054D01*
G01X8542980Y564346D02*
G01X8686746Y420580D01*
G01X7687674Y1518647D02*
G01X7782267Y1424054D01*
G01X8641975Y564346D02*
G01X8686746Y519575D01*
G01X7786669Y1518647D02*
G01X7881261Y1424054D01*
G01X7885663Y1518647D02*
G01X7980256Y1424054D01*
G01X7984658Y1518647D02*
G01X8079251Y1424054D01*
G01X8083653Y1518647D02*
G01X8178246Y1424054D01*
G01X8182648Y1518647D02*
G01X8277240Y1424054D01*
G01X-387943Y2180887D02*
G03X-389973Y2192746I-35654J0D01*
G01X-216100Y2192746D01*
G02X-211754Y2188400I0J-4346D01*
G01X-211754Y2028400D01*
G03X-136100Y1952746I75654J0D01*
G01X8282746Y1952746D01*
G01X8282746Y1923400D01*
G03X8284177Y1913400I35654J0D01*
G03X8282746Y1903400I34223J-10000D01*
G01X8282746Y1873400D01*
G03X8284177Y1863400I35654J0D01*
G03X8282746Y1853400I34223J-10000D01*
G01X8282746Y1823400D01*
G03X8284177Y1813400I35654J0D01*
G03X8282746Y1803400I34223J-10000D01*
G01X8282746Y1773400D01*
G03X8284177Y1763400I35654J0D01*
G03X8282746Y1753400I34223J-10000D01*
G01X8282746Y1723400D01*
G03X8284177Y1713400I35654J0D01*
G03X8282746Y1703400I34223J-10000D01*
G01X8282746Y1673401D01*
G03X8284177Y1663401I35654J0D01*
G03X8282746Y1653401I34223J-10000D01*
G01X8282746Y1623401D01*
G03X8283744Y1615022I35654J0D01*
G03X8280079Y1608155I29434J-20121D01*
G01X14812Y1608155D01*
G02X-123248Y1665341I0J195246D01*
G01X-140171Y1682263D01*
G03X-341522Y1765666I-201351J-201352D01*
G01X-360274Y1765666D01*
G03X-375850Y1785105I-33859J-11170D01*
G02X-380344Y1788050I33111J55434D01*
G03X-377945Y1800909I-33254J12859D01*
G01X-377945Y1835910D01*
G03X-413599Y1871564I-35654J0D01*
G01X-564266Y1871564D01*
G01X-564271Y2012712D01*
G03X-533597Y1995233I30673J18175D01*
G01X-423597Y1995233D01*
G03X-387943Y2030887I0J35654D01*
G01X-387943Y2180887D01*
G01X-564270Y2002947D02*
G01X-560138Y2007080D01*
G01X-387943Y2179274D02*
G01X-374471Y2192746D01*
G01X-564267Y1903956D02*
G01X-472990Y1995233D01*
G01X-387943Y2080280D02*
G01X-275477Y2192746D01*
G01X-497664Y1871564D02*
G01X-211754Y2157474D01*
G01X-400978Y1869256D02*
G01X-211754Y2058479D01*
G01X-379020Y1792219D02*
G01X-192859Y1978380D01*
G01X-308499Y1763745D02*
G01X-119498Y1952746D01*
G01X-230232Y1743017D02*
G01X-20503Y1952746D01*
G01X-167755Y1706499D02*
G01X78492Y1952746D01*
G01X-116423Y1658837D02*
G01X177487Y1952746D01*
G01X-55147Y1621118D02*
G01X276481Y1952746D01*
G01X30884Y1608155D02*
G01X375476Y1952746D01*
G01X129879Y1608155D02*
G01X474471Y1952746D01*
G01X228874Y1608155D02*
G01X573466Y1952746D01*
G01X327869Y1608155D02*
G01X672460Y1952746D01*
G01X426863Y1608155D02*
G01X771455Y1952746D01*
G01X525858Y1608155D02*
G01X870450Y1952746D01*
G01X624853Y1608155D02*
G01X969445Y1952746D01*
G01X723848Y1608155D02*
G01X1068439Y1952746D01*
G01X822843Y1608155D02*
G01X1167434Y1952746D01*
G01X921837Y1608155D02*
G01X1266429Y1952746D01*
G01X1020832Y1608155D02*
G01X1365424Y1952746D01*
G01X1119827Y1608155D02*
G01X1464418Y1952746D01*
G01X1218822Y1608155D02*
G01X1563413Y1952746D01*
G01X1317816Y1608155D02*
G01X1662408Y1952746D01*
G01X1416811Y1608155D02*
G01X1761403Y1952746D01*
G01X1515806Y1608155D02*
G01X1860397Y1952746D01*
G01X1614801Y1608155D02*
G01X1959392Y1952746D01*
G01X1713795Y1608155D02*
G01X2058387Y1952746D01*
G01X1812790Y1608155D02*
G01X2157382Y1952746D01*
G01X1911785Y1608155D02*
G01X2256376Y1952746D01*
G01X2010780Y1608155D02*
G01X2355371Y1952746D01*
G01X2109774Y1608155D02*
G01X2454366Y1952746D01*
G01X2208769Y1608155D02*
G01X2553361Y1952746D01*
G01X2307764Y1608155D02*
G01X2652355Y1952746D01*
G01X2406759Y1608155D02*
G01X2751350Y1952746D01*
G01X2505753Y1608155D02*
G01X2850345Y1952746D01*
G01X2604748Y1608155D02*
G01X2949340Y1952746D01*
G01X2703743Y1608155D02*
G01X3048334Y1952746D01*
G01X2802738Y1608155D02*
G01X3147329Y1952746D01*
G01X2901732Y1608155D02*
G01X3246324Y1952746D01*
G01X3000727Y1608155D02*
G01X3345319Y1952746D01*
G01X3099722Y1608155D02*
G01X3444313Y1952746D01*
G01X3198717Y1608155D02*
G01X3543308Y1952746D01*
G01X3297711Y1608155D02*
G01X3642303Y1952746D01*
G01X3396706Y1608155D02*
G01X3741298Y1952746D01*
G01X3495701Y1608155D02*
G01X3840292Y1952746D01*
G01X3594696Y1608155D02*
G01X3939287Y1952746D01*
G01X3693690Y1608155D02*
G01X4038282Y1952746D01*
G01X3792685Y1608155D02*
G01X4137277Y1952746D01*
G01X3891680Y1608155D02*
G01X4236271Y1952746D01*
G01X3990675Y1608155D02*
G01X4335266Y1952746D01*
G01X4089669Y1608155D02*
G01X4434261Y1952746D01*
G01X4188664Y1608155D02*
G01X4533256Y1952746D01*
G01X4287659Y1608155D02*
G01X4632250Y1952746D01*
G01X4386654Y1608155D02*
G01X4731245Y1952746D01*
G01X4485648Y1608155D02*
G01X4830240Y1952746D01*
G01X4584643Y1608155D02*
G01X4929235Y1952746D01*
G01X4683638Y1608155D02*
G01X5028229Y1952746D01*
G01X4782633Y1608155D02*
G01X5127224Y1952746D01*
G01X4881627Y1608155D02*
G01X5226219Y1952746D01*
G01X4980622Y1608155D02*
G01X5325214Y1952746D01*
G01X5079617Y1608155D02*
G01X5424208Y1952746D01*
G01X5178612Y1608155D02*
G01X5523203Y1952746D01*
G01X5277606Y1608155D02*
G01X5622198Y1952746D01*
G01X5376601Y1608155D02*
G01X5721193Y1952746D01*
G01X5475596Y1608155D02*
G01X5820187Y1952746D01*
G01X5574591Y1608155D02*
G01X5919182Y1952746D01*
G01X5673585Y1608155D02*
G01X6018177Y1952746D01*
G01X5772580Y1608155D02*
G01X6117172Y1952746D01*
G01X5871575Y1608155D02*
G01X6216166Y1952746D01*
G01X5970570Y1608155D02*
G01X6315161Y1952746D01*
G01X6069564Y1608155D02*
G01X6414156Y1952746D01*
G01X6168559Y1608155D02*
G01X6513151Y1952746D01*
G01X6267554Y1608155D02*
G01X6612145Y1952746D01*
G01X6366549Y1608155D02*
G01X6711140Y1952746D01*
G01X6465543Y1608155D02*
G01X6810135Y1952746D01*
G01X6564538Y1608155D02*
G01X6909130Y1952746D01*
G01X6663533Y1608155D02*
G01X7008124Y1952746D01*
G01X6762528Y1608155D02*
G01X7107119Y1952746D01*
G01X6861522Y1608155D02*
G01X7206114Y1952746D01*
G01X6960517Y1608155D02*
G01X7305109Y1952746D01*
G01X7059512Y1608155D02*
G01X7404103Y1952746D01*
G01X7158507Y1608155D02*
G01X7503098Y1952746D01*
G01X7257501Y1608155D02*
G01X7602093Y1952746D01*
G01X7356496Y1608155D02*
G01X7701088Y1952746D01*
G01X7455491Y1608155D02*
G01X7800082Y1952746D01*
G01X7554486Y1608155D02*
G01X7899077Y1952746D01*
G01X7653480Y1608155D02*
G01X7998072Y1952746D01*
G01X7752475Y1608155D02*
G01X8097067Y1952746D01*
G01X7851470Y1608155D02*
G01X8196061Y1952746D01*
G01X7950465Y1608155D02*
G01X8282746Y1940436D01*
G01X8049459Y1608155D02*
G01X8282746Y1841441D01*
G01X8148454Y1608155D02*
G01X8282746Y1742446D01*
G01X8247449Y1608155D02*
G01X8282746Y1643452D01*
G01X-564268Y1950004D02*
G01X-485829Y1871564D01*
G01X-510503Y1995233D02*
G01X-272425Y1757155D01*
G01X-413091Y1996816D02*
G01X-29532Y1613257D01*
G01X-387943Y2070663D02*
G01X74565Y1608155D01*
G01X-387943Y2169658D02*
G01X173560Y1608155D01*
G01X-312037Y2192746D02*
G01X-211754Y2092463D01*
G01X-72037Y1952746D02*
G01X272554Y1608155D01*
G01X26958Y1952746D02*
G01X371549Y1608155D01*
G01X125952Y1952746D02*
G01X470544Y1608155D01*
G01X224947Y1952746D02*
G01X569539Y1608155D01*
G01X323942Y1952746D02*
G01X668533Y1608155D01*
G01X422937Y1952746D02*
G01X767528Y1608155D01*
G01X521931Y1952746D02*
G01X866523Y1608155D01*
G01X620926Y1952746D02*
G01X965518Y1608155D01*
G01X719921Y1952746D02*
G01X1064512Y1608155D01*
G01X818916Y1952746D02*
G01X1163507Y1608155D01*
G01X917910Y1952746D02*
G01X1262502Y1608155D01*
G01X1016905Y1952746D02*
G01X1361497Y1608155D01*
G01X1115900Y1952746D02*
G01X1460491Y1608155D01*
G01X1214895Y1952746D02*
G01X1559486Y1608155D01*
G01X1313889Y1952746D02*
G01X1658481Y1608155D01*
G01X1412884Y1952746D02*
G01X1757476Y1608155D01*
G01X1511879Y1952746D02*
G01X1856471Y1608155D01*
G01X1610874Y1952746D02*
G01X1955465Y1608155D01*
G01X1709868Y1952746D02*
G01X2054460Y1608155D01*
G01X1808863Y1952746D02*
G01X2153455Y1608155D01*
G01X1907858Y1952746D02*
G01X2252450Y1608155D01*
G01X2006853Y1952746D02*
G01X2351444Y1608155D01*
G01X2105847Y1952746D02*
G01X2450439Y1608155D01*
G01X2204842Y1952746D02*
G01X2549434Y1608155D01*
G01X2303837Y1952746D02*
G01X2648429Y1608155D01*
G01X2402832Y1952746D02*
G01X2747423Y1608155D01*
G01X2501827Y1952746D02*
G01X2846418Y1608155D01*
G01X2600821Y1952746D02*
G01X2945413Y1608155D01*
G01X2699816Y1952746D02*
G01X3044408Y1608155D01*
G01X2798811Y1952746D02*
G01X3143402Y1608155D01*
G01X2897806Y1952746D02*
G01X3242397Y1608155D01*
G01X2996800Y1952746D02*
G01X3341392Y1608155D01*
G01X3095795Y1952746D02*
G01X3440387Y1608155D01*
G01X3194790Y1952746D02*
G01X3539381Y1608155D01*
G01X3293785Y1952746D02*
G01X3638376Y1608155D01*
G01X3392779Y1952746D02*
G01X3737371Y1608155D01*
G01X3491774Y1952746D02*
G01X3836366Y1608155D01*
G01X3590769Y1952746D02*
G01X3935360Y1608155D01*
G01X3689764Y1952746D02*
G01X4034355Y1608155D01*
G01X3788758Y1952746D02*
G01X4133350Y1608155D01*
G01X3887753Y1952746D02*
G01X4232345Y1608155D01*
G01X3986748Y1952746D02*
G01X4331339Y1608155D01*
G01X4085743Y1952746D02*
G01X4430334Y1608155D01*
G01X4184737Y1952746D02*
G01X4529329Y1608155D01*
G01X4283732Y1952746D02*
G01X4628324Y1608155D01*
G01X4382727Y1952746D02*
G01X4727318Y1608155D01*
G01X4481722Y1952746D02*
G01X4826313Y1608155D01*
G01X4580716Y1952746D02*
G01X4925308Y1608155D01*
G01X4679711Y1952746D02*
G01X5024303Y1608155D01*
G01X4778706Y1952746D02*
G01X5123297Y1608155D01*
G01X4877701Y1952746D02*
G01X5222292Y1608155D01*
G01X4976695Y1952746D02*
G01X5321287Y1608155D01*
G01X5075690Y1952746D02*
G01X5420282Y1608155D01*
G01X5174685Y1952746D02*
G01X5519276Y1608155D01*
G01X5273680Y1952746D02*
G01X5618271Y1608155D01*
G01X5372674Y1952746D02*
G01X5717266Y1608155D01*
G01X5471669Y1952746D02*
G01X5816261Y1608155D01*
G01X5570664Y1952746D02*
G01X5915255Y1608155D01*
G01X5669659Y1952746D02*
G01X6014250Y1608155D01*
G01X5768653Y1952746D02*
G01X6113245Y1608155D01*
G01X5867648Y1952746D02*
G01X6212240Y1608155D01*
G01X5966643Y1952746D02*
G01X6311234Y1608155D01*
G01X6065638Y1952746D02*
G01X6410229Y1608155D01*
G01X6164632Y1952746D02*
G01X6509224Y1608155D01*
G01X6263627Y1952746D02*
G01X6608219Y1608155D01*
G01X6362622Y1952746D02*
G01X6707213Y1608155D01*
G01X6461617Y1952746D02*
G01X6806208Y1608155D01*
G01X6560611Y1952746D02*
G01X6905203Y1608155D01*
G01X6659606Y1952746D02*
G01X7004198Y1608155D01*
G01X6758601Y1952746D02*
G01X7103192Y1608155D01*
G01X6857596Y1952746D02*
G01X7202187Y1608155D01*
G01X6956590Y1952746D02*
G01X7301182Y1608155D01*
G01X7055585Y1952746D02*
G01X7400177Y1608155D01*
G01X7154580Y1952746D02*
G01X7499171Y1608155D01*
G01X7253575Y1952746D02*
G01X7598166Y1608155D01*
G01X7352569Y1952746D02*
G01X7697161Y1608155D01*
G01X7451564Y1952746D02*
G01X7796156Y1608155D01*
G01X7550559Y1952746D02*
G01X7895150Y1608155D01*
G01X7649554Y1952746D02*
G01X7994145Y1608155D01*
G01X7748548Y1952746D02*
G01X8093140Y1608155D01*
G01X7847543Y1952746D02*
G01X8192135Y1608155D01*
G01X7946538Y1952746D02*
G01X8283588Y1615696D01*
G01X8045533Y1952746D02*
G01X8283908Y1714370D01*
G01X8144527Y1952746D02*
G01X8284109Y1813164D01*
G01X8243522Y1952746D02*
G01X8283894Y1912374D01*
G54D11*
G01X-535203Y649999D02*
G01X-535203Y725653D01*
G01X-535203Y649999D02*
G01X-535203Y574345D01*
G01X-535203Y649999D02*
G01X-384550Y649999D01*
G01X-535203Y649999D02*
G01X-685857Y649999D01*
G01X-513598Y1623389D02*
G01X-387945Y1623389D01*
G01X-513598Y1558390D02*
G01X-513598Y1515235D01*
G01X-513598Y1558390D02*
G01X-387945Y1558390D01*
G01X-478597Y2105887D02*
G01X-478597Y2005233D01*
G01X-478597Y2105887D02*
G01X-397943Y2105887D01*
G01X-478597Y1270887D02*
G01X-478597Y1371541D01*
G01X-478597Y1270887D02*
G01X-478597Y1170234D01*
G01X-478597Y1270887D02*
G01X-397943Y1270887D01*
G01X8468400Y1438401D02*
G01X8292746Y1438401D01*
G01X-760197Y885000D02*
G01X-760197Y794346D01*
G01X-760197Y885000D02*
G01X-584543Y885000D01*
G01X-760197Y885000D02*
G01X-935850Y885000D01*
G01X-760197Y-285000D02*
G01X-760197Y-194346D01*
G01X-760197Y-285000D02*
G01X-584543Y-285000D01*
G01X-760197Y-285000D02*
G01X-935850Y-285000D01*
G01X-653603Y1258391D02*
G01X-653603Y1182737D01*
G04 Copper End*

G04 TearDrop Start*
G36*
G01X-390704Y246500D02*
G01X-390704Y233500D01*
G03X-410204Y223750I0J-24375D01*
G01X-410204Y250013D01*
G03X-390704Y246500I19500J52369D01*
G37*
G36*
G01X-390704Y366500D02*
G01X-390704Y353500D01*
G03X-410204Y350013I0J-56259D01*
G01X-410204Y376250D01*
G03X-390704Y366500I19500J14625D01*
G37*
G36*
G01X-394133Y1754496D02*
G01X-398148Y1741513D01*
G03X-413599Y1737161I-6137J-7814D01*
G01X-413599Y1769661D01*
G03X-394133Y1754496I70860J70878D01*
G37*
G36*
G01X-398148Y1700311D02*
G01X-394133Y1687328D01*
G03X-413599Y1672163I51395J-86043D01*
G01X-413599Y1704663D01*
G03X-398148Y1700311I9313J3462D01*
G37*
G36*
G01X-571697Y2105709D02*
G01X-571697Y2131109D01*
G03X-533597Y2150159I0J47625D01*
G01X-533597Y2086659D01*
G03X-571697Y2105709I-38100J-28575D01*
G37*
G36*
G01X-571697Y1245691D02*
G01X-571697Y1271091D01*
G03X-533597Y1290141I0J47625D01*
G01X-533597Y1226641D01*
G03X-571697Y1245691I-38100J-28575D01*
G37*
G36*
G01X-536878Y2131109D02*
G01X-536878Y2105709D01*
G01X-541415Y2105281D01*
G01X-546463Y2104072D01*
G01X-551799Y2102193D01*
G01X-557200Y2099756D01*
G01X-562441Y2096873D01*
G01X-567300Y2093654D01*
G01X-571553Y2090212D01*
G01X-574978Y2086659D01*
G01X-574978Y2150159D01*
G01X-571553Y2146606D01*
G01X-567300Y2143164D01*
G01X-562441Y2139946D01*
G01X-557200Y2137062D01*
G01X-551799Y2134625D01*
G01X-546463Y2132746D01*
G01X-541415Y2131537D01*
G01X-536878Y2131109D01*
G37*
G36*
G01X-536878Y1271091D02*
G01X-536878Y1245691D01*
G01X-541415Y1245263D01*
G01X-546463Y1244054D01*
G01X-551799Y1242175D01*
G01X-557200Y1239738D01*
G01X-562441Y1236854D01*
G01X-567300Y1233636D01*
G01X-571553Y1230194D01*
G01X-574978Y1226641D01*
G01X-574978Y1290141D01*
G01X-571553Y1286587D01*
G01X-567300Y1283146D01*
G01X-562441Y1279927D01*
G01X-557200Y1277044D01*
G01X-551799Y1274607D01*
G01X-546463Y1272728D01*
G01X-541415Y1271519D01*
G01X-536878Y1271091D01*
G37*
G36*
G01X8293100Y1473200D02*
G01X8293100Y1498600D01*
G03X8318400Y1503401I0J69064D01*
G01X8318400Y1473401D01*
G03X8293100Y1473200I-0J-1593011D01*
G37*
G36*
G01X8313178Y1531901D02*
G01X8313178Y1544901D01*
G03X8318400Y1553401I-4307J8500D01*
G01X8318400Y1523401D01*
G03X8313178Y1531901I-9529J0D01*
G37*
G36*
G01X8313178Y1581901D02*
G01X8313178Y1594901D01*
G03X8318400Y1603401I-4307J8500D01*
G01X8318400Y1573401D01*
G03X8313178Y1581901I-9529J0D01*
G37*
G36*
G01X8293100Y1625600D02*
G01X8293100Y1651000D01*
G03X8318400Y1653401I0J134521D01*
G01X8318400Y1623401D01*
G03X8293100Y1625600I-25300J-144414D01*
G37*
G36*
G01X8293100Y1676400D02*
G01X8293100Y1701800D01*
G03X8318400Y1703400I0J200771D01*
G01X8318400Y1673401D01*
G03X8293100Y1676400I-25300J-105200D01*
G37*
G36*
G01X-342240Y353500D02*
G01X-342240Y366500D01*
G01X-339676Y367714D01*
G01X-335011Y370914D01*
G01X-322990Y380625D01*
G01X-322990Y339375D01*
G01X-335011Y349086D01*
G01X-339676Y352286D01*
G01X-342240Y353500D01*
G37*
G36*
G01X-342240Y233500D02*
G01X-342240Y246500D01*
G01X-339676Y247714D01*
G01X-335011Y250914D01*
G01X-322990Y260625D01*
G01X-322990Y219375D01*
G01X-335011Y229086D01*
G01X-339676Y232286D01*
G01X-342240Y233500D01*
G37*
G04 TearDrop End*

G04 Pad Start*
G54D12*
G01X-535203Y-49999D03*
G01X-535203Y200013D03*
G01X-535203Y400012D03*
G01X-535203Y649999D03*
G54D13*
G01X-760197Y885000D03*
G01X-760197Y-285000D03*
G54D14*
G01X-513598Y1818410D03*
G01X-513598Y1753411D03*
G01X-513598Y1688413D03*
G01X-513598Y1623389D03*
G01X-513598Y1558390D03*
G54D16*
G01X-478597Y2105887D03*
G01X-478597Y1270887D03*
G54D17*
G01X-653603Y2118409D03*
G01X-653603Y1258391D03*
G54D18*
G01X8468400Y1438401D03*
G01X8468400Y1488401D03*
G01X8468400Y1538401D03*
G01X8468400Y1588401D03*
G01X8468400Y1638401D03*
G01X8468400Y1688400D03*
G01X8468400Y1738400D03*
G01X8468400Y1788400D03*
G01X8468400Y1838400D03*
G01X8468400Y1888400D03*
G01X8468400Y1938400D03*
G04 Pad End*

G04 Via Start*
G54D19*
G01X-304800Y360000D03*
G01X-304800Y240000D03*
G01X-292100Y1384300D03*
G01X-241300Y1231900D03*
G01X-444500Y1435100D03*
G01X-254000Y1536700D03*
G01X-444500Y1930400D03*
G01X-304800Y2082800D03*
G01X-292100Y1968500D03*
G01X-241300Y1828800D03*
G01X8128000Y1892300D03*
G01X8178800Y1727200D03*
G01X8128000Y1473200D03*
G01X-495300Y889000D03*
G01X-292100Y876300D03*
G01X-241300Y736600D03*
G01X-393700Y787400D03*
G01X-203200Y596900D03*
G01X-342900Y558800D03*
G01X-800100Y685800D03*
G01X-889000Y596900D03*
G01X-889000Y393700D03*
G01X-787545Y300000D03*
G01X-889000Y203200D03*
G01X-304800Y0D03*
G01X-190500Y101600D03*
G01X-241300Y-152400D03*
G01X-889000Y-101600D03*
G01X-444500Y-254000D03*
G01X-292100Y-317500D03*
G01X8211774Y300000D03*
G01X8267700Y139700D03*
G01X8178800Y533400D03*
G04 Via End*

G04 Track Start*
G54D20*
G01X8468400Y1538401D02*
G01X8313178Y1538401D01*
G01X8468400Y1588401D02*
G01X8313178Y1588401D01*
G01X8313178Y1538401D02*
G02X8299900Y1543901I0J18778D01*
G01X8299900Y1543901D02*
G03X8286622Y1549401I-13278J-13278D01*
G01X8313178Y1588401D02*
G03X8299900Y1582901I0J-18778D01*
G01X8299900Y1582901D02*
G02X8286622Y1577401I-13278J13278D01*
G01X-513598Y1753411D02*
G01X-413761Y1753411D01*
G01X-513598Y1688413D02*
G01X-413761Y1688413D01*
G01X-413761Y1753411D02*
G02X-391292Y1744104I0J-31776D01*
G01X-391292Y1744104D02*
G03X-369099Y1734912I22192J22192D01*
G01X-413761Y1688413D02*
G03X-391292Y1697720I0J31776D01*
G01X-391292Y1697720D02*
G02X-369099Y1706912I22192J-22192D01*
G01X-341522Y1734912D02*
G02X-161917Y1660517I0J-254000D01*
G01X-341522Y1706912D02*
G02X-181716Y1640718I0J-226000D01*
G01X-144995Y1643595D02*
G03X14812Y1577401I159806J159806D01*
G01X-164793Y1623796D02*
G03X14812Y1549401I179605J179605D01*
G01X-369099Y1734912D02*
G01X-341522Y1734912D01*
G01X-369099Y1706912D02*
G01X-341522Y1706912D01*
G01X-181716Y1640718D02*
G01X-164793Y1623796D01*
G01X-161917Y1660517D02*
G01X-144995Y1643595D01*
G01X14812Y1577401D02*
G01X8286622Y1577401D01*
G01X14812Y1549401D02*
G01X8286622Y1549401D01*
G01X-535203Y400012D02*
G02X-515404Y391812I0J-28000D01*
G01X-515404Y391812D02*
G03X-438605Y360000I76800J76799D01*
G01X-304800Y360000D01*
G01X-535203Y200013D02*
G03X-515404Y208214I0J28000D01*
G02X-438666Y240000I76739J-76738D01*
G01X-304800Y240000D01*
G54D11*
G01X-653603Y2118409D02*
G01X-491119Y2118409D01*
G02X-478597Y2105887I0J-12522D01*
G01X8468400Y1688400D02*
G03X8467700Y1689100I-700J0D01*
G01X8293100Y1689100D01*
G01X8468299Y1638300D02*
G01X8293100Y1638300D01*
G01X8468400Y1488401D02*
G01X8465899Y1485900D01*
G01X8293100Y1485900D01*
G01X-478597Y1270887D02*
G02X-491094Y1258391I-12497J0D01*
G01X-653603Y1258391D01*
G04 Track End*

M02*

