G04 Layer: BoardOutlineLayer*
G04 EasyEDA Pro v4.1.60, 2026-10-07 22:49:11*
G04 Gerber Generator version 0.3*
G04 Scale: 100 percent, Rotated: No, Reflected: No*
G04 Dimensions in millimeters*
G04 Leading zeros omitted, absolute positions, 4 integers and 5 decimals*
G04 Generated by one-click*
G04 Object Configs: Pad,Via,Track,Text,Image,Dimension,BoardOutline,BoardCutout,CopperFilled,SolidRegion,FPCStiffener,Line,PlaneZone,ComponentProperty,ComponentSilkscreen,TearDrop*
G04 Layer Configs: 1,2,3,4,5,6,7,8,9,10,58,59,11,13,14,56*
G04 Copper Areas: 0*
%FSLAX45Y45*%
%MOMM*%
%ADD10C,0.1*%
%ADD11C,0.1154*%
G75*


G04 PolygonModel Start*
G54D10*
G01X-990600Y916000D02*
G01X-990600Y-316000D01*
G01X-890600Y-416000D02*
G01X-200000Y-416000D01*
G01X0Y0D02*
G01X8702400Y0D01*
G01X8722400Y20000D02*
G01X8722400Y580000D01*
G01X8702400Y600000D02*
G01X0Y600000D01*
G01X-696400Y1016000D02*
G01X-890600Y1016000D01*
G01X-890600Y1016000D02*
G03X-990600Y916000I0J-100000D01*
G01X-890600Y-416000D02*
G02X-990600Y-316000I0J100000D01*
G01X0Y0D02*
G03X-100000Y-100000I0J-100000D01*
G01X0Y600000D02*
G02X-100000Y700000I0J100000D01*
G01X-100000Y-100000D02*
G01X-100000Y-316000D01*
G01X-100000Y700000D02*
G01X-100000Y916000D01*
G01X-100000Y916000D02*
G03X-200000Y1016000I-100000J0D01*
G01X-200000Y-416000D02*
G03X-100000Y-316000I0J100000D01*
G01X8722400Y580000D02*
G03X8702400Y600000I-20000J0D01*
G01X8722400Y20000D02*
G02X8702400Y0I-20000J0D01*
G01X-136100Y1388400D02*
G01X8618400Y1388400D01*
G01X8638400Y1408400D02*
G01X8638400Y1968400D01*
G01X8618400Y1988400D02*
G01X-136100Y1988400D01*
G01X8638400Y1408400D02*
G02X8618400Y1388400I-20000J0D01*
G01X8618400Y1988400D02*
G02X8638400Y1968400I0J-20000D01*
G01X-176100Y1348400D02*
G01X-176100Y1188400D01*
G01X-176100Y1348400D02*
G02X-136100Y1388400I40000J0D01*
G01X-176100Y1188400D02*
G02X-216100Y1148400I-40000J0D01*
G01X-774515Y1188400D02*
G01X-774500Y1338400D01*
G01X-734500Y1148400D02*
G02X-774515Y1188400I-7J40007D01*
G01X-774515Y2188400D02*
G01X-774500Y2038400D01*
G01X-734500Y2228400D02*
G03X-774515Y2188400I-7J-40007D01*
G01X-176100Y2028400D02*
G01X-176100Y2188400D01*
G01X-176100Y2188400D02*
G03X-216100Y2228400I-40000J-0D01*
G01X-176100Y2028400D02*
G03X-136100Y1988400I40000J0D01*
G01X-774500Y1338400D02*
G01X-606200Y1338400D01*
G01X-599903Y1344500D02*
G01X-599903Y2032200D01*
G01X-606103Y2038400D02*
G01X-774500Y2038400D01*
G01X-599903Y1344500D02*
G02X-606220Y1338400I-6215J116D01*
G01X-606103Y2038400D02*
G02X-599922Y2032200I-3J-6184D01*
G01X-734500Y2228400D02*
G01X-216100Y2228400D01*
G01X-696400Y1148400D02*
G01X-696400Y1016001D01*
G01X-696399Y1016002D01*
G01X-696400Y1016000D01*
G01X-696399Y1016000D01*
G01X-225400Y1148400D02*
G01X-225400Y1016000D01*
G01X-225400Y1148400D02*
G01X-216100Y1148400D01*
G01X-225400Y1016000D02*
G01X-200000Y1016000D01*
G01X-734508Y1148400D02*
G01X-696400Y1148400D01*

M02*

